<mxfile host="Electron" agent="Mozilla/5.0 (Windows NT 10.0; Win64; x64) AppleWebKit/537.36 (KHTML, like Gecko) draw.io/25.0.2 Chrome/128.0.6613.186 Electron/32.2.5 Safari/537.36" version="25.0.2">
  <diagram name="Page-1" id="pATBrw1lWV1iO7X7TpeR">
    <mxGraphModel dx="3906" dy="1314" grid="1" gridSize="10" guides="1" tooltips="1" connect="1" arrows="1" fold="1" page="1" pageScale="1" pageWidth="850" pageHeight="1100" math="0" shadow="0">
      <root>
        <mxCell id="0" />
        <mxCell id="1" parent="0" />
        <UserObject label="" plantUmlData="{&#xa;  &quot;data&quot;: &quot;@startuml\n\nclass User {\n  + UserID: int\n  + Name: String\n  + Email: String\n  + PasswordHash: String\n  + Role: String\n  + SignUpDate: DateTime\n  + authenticate(): Boolean\n  + updateProfile(): void\n}\n\nclass UserProfile {\n  + ProfileID: int\n  + Goals: String\n  + Interests: String\n  + Skills: String\n  + updatePreferences(): void\n}\n\nclass Assessment {\n  + AssessmentID: int\n  + Type: String\n  + Description: String\n  + createAssessment(): void\n}\n\nclass AssessmentResult {\n  + ResultID: int\n  + Score: float\n  + GeneratedReport: String\n  + CompletedDate: DateTime\n  + generateReport(): void\n}\n\nclass Roadmap {\n  + RoadmapID: int\n  + RoadmapType: String\n  + CreatedDate: DateTime\n  + generateRoadmap(): void\n}\n\nclass RoadmapStep {\n  + StepID: int\n  + StepDescription: String\n  + IsCompleted: Boolean\n  + markAsCompleted(): void\n}\n\nclass Community {\n  + CommunityID: int\n  + Name: String\n  + Description: String\n  + createCommunity(): void\n}\n\nclass CommunityMember {\n  + MemberID: int\n  + Role: String\n  + JoinedDate: DateTime\n  + joinCommunity(): void\n}\n\nclass Badge {\n  + BadgeID: int\n  + Name: String\n  + Description: String\n  + createBadge(): void\n}\n\nclass UserBadge {\n  + EarnedDate: DateTime\n  + awardBadge(): void\n}\n\nclass Notification {\n  + NotificationID: int\n  + Message: String\n  + IsRead: Boolean\n  + notifyUser(): void\n}\n\nclass Certificate {\n  + CertificateID: int\n  + Title: String\n  + IssueDate: DateTime\n  + downloadCertificate(): void\n}\n\nclass LearningResource {\n  + ResourceID: int\n  + Title: String\n  + URL: String\n  + Description: String\n  + addResource(): void\n}\n\nclass Mentorship {\n  + MentorshipID: int\n  + Status: String\n  + StartDate: DateTime\n  + provideGuidance(): void\n}\n\nclass Feedback {\n  + FeedbackID: int\n  + FeedbackType: String\n  + Message: String\n  + SubmittedDate: DateTime\n  + submitFeedback(): void\n}\n\nUser \&quot;1\&quot; -- \&quot;1\&quot; UserProfile\nUser \&quot;1\&quot; -- \&quot;*\&quot; AssessmentResult\nUser \&quot;1\&quot; -- \&quot;*\&quot; Roadmap\nUser \&quot;1\&quot; -- \&quot;*\&quot; CommunityMember\nUser \&quot;1\&quot; -- \&quot;*\&quot; Notification\nUser \&quot;1\&quot; -- \&quot;*\&quot; UserBadge\nUser \&quot;1\&quot; -- \&quot;*\&quot; Certificate\nUser \&quot;*\&quot; -- \&quot;*\&quot; Mentorship\nAssessment \&quot;1\&quot; -- \&quot;*\&quot; AssessmentResult\nRoadmap \&quot;1\&quot; -- \&quot;*\&quot; RoadmapStep\nRoadmap \&quot;*\&quot; -- \&quot;*\&quot; LearningResource\nCommunity \&quot;1\&quot; -- \&quot;*\&quot; CommunityMember\nBadge \&quot;1\&quot; -- \&quot;*\&quot; UserBadge\n@enduml\n&quot;,&#xa;  &quot;format&quot;: &quot;svg&quot;&#xa;}" id="T5KSSh7THe1bZJCrdphr-1">
          <mxCell style="shape=image;noLabel=1;verticalAlign=top;aspect=fixed;imageAspect=0;image=data:image/svg+xml,PD94bWwgdmVyc2lvbj0iMS4wIiBlbmNvZGluZz0idXMtYXNjaWkiIHN0YW5kYWxvbmU9Im5vIj8+PHN2ZyB4bWxucz0iaHR0cDovL3d3dy53My5vcmcvMjAwMC9zdmciIHhtbG5zOnhsaW5rPSJodHRwOi8vd3d3LnczLm9yZy8xOTk5L3hsaW5rIiBjb250ZW50U3R5bGVUeXBlPSJ0ZXh0L2NzcyIgaGVpZ2h0PSI1NDdweCIgcHJlc2VydmVBc3BlY3RSYXRpbz0ibm9uZSIgc3R5bGU9IndpZHRoOjE5ODZweDtoZWlnaHQ6NTQ3cHg7YmFja2dyb3VuZDojRkZGRkZGOyIgdmVyc2lvbj0iMS4xIiB2aWV3Qm94PSIwIDAgMTk4NiA1NDciIHdpZHRoPSIxOTg2cHgiIHpvb21BbmRQYW49Im1hZ25pZnkiPjxkZWZzLz48Zz48IS0tY2xhc3MgVXNlci0tPjxnIGlkPSJlbGVtX1VzZXIiPjxyZWN0IGNvZGVMaW5lPSIxIiBmaWxsPSIjRjFGMUYxIiBoZWlnaHQ9IjE2Ny44NzUiIGlkPSJVc2VyIiByeD0iMi41IiByeT0iMi41IiBzdHlsZT0ic3Ryb2tlOiMxODE4MTg7c3Ryb2tlLXdpZHRoOjAuNTsiIHdpZHRoPSIxODkiIHg9IjgwMiIgeT0iNyIvPjxlbGxpcHNlIGN4PSI4NzguMjUiIGN5PSIyMyIgZmlsbD0iI0FERDFCMiIgcng9IjExIiByeT0iMTEiIHN0eWxlPSJzdHJva2U6IzE4MTgxODtzdHJva2Utd2lkdGg6MS4wOyIvPjxwYXRoIGQ9Ik04NzUuODc1LDI3LjI1IEw4NzUuODc1LDI5IEw4ODAuODEyNSwyOSBMODgwLjgxMjUsMjcuMjUgTDg3NS44NzUsMjcuMjUgWiBNODc2LjU2MjUsMjcuOTM3NSBRODc2LjU2MjUsMjcuOTM3NSA4NzYuNTYyNSwxOC43NSBMODc0LjgxMjUsMTguNzUgUTg3NC44MTI1LDE4Ljc1IDg3NC44MTI1LDI3LjkzNzUgTDg3Ni41NjI1LDI3LjkzNzUgWiBNODgwLjEyNSwyNy45Mzc1IEw4ODEuODc1LDI3LjkzNzUgUTg4MS44NzUsMjcuOTM3NSA4ODEuODc1LDI1LjEyNSBMODgwLjEyNSwyNS4xMjUgUTg4MC4xMjUsMjUuMTI1IDg4MC4xMjUsMjcuOTM3NSBaIE04ODAuMTI1LDE4Ljc1IFE4ODAuMTI1LDE4Ljc1IDg4MC4xMjUsMjEuNTYyNSBMODgxLjg3NSwyMS41NjI1IFE4ODEuODc1LDIxLjU2MjUgODgxLjg3NSwxOC43NSBMODgwLjEyNSwxOC43NSBaIE04NzUuODc1LDE5LjQzNzUgTDg4MC44MTI1LDE5LjQzNzUgTDg4MC44MTI1LDE3LjY4NzUgTDg3NS44NzUsMTcuNjg3NSBMODc1Ljg3NSwxOS40Mzc1IFogIiBmaWxsPSIjMDAwMDAwIi8+PHRleHQgZmlsbD0iIzAwMDAwMCIgZm9udC1mYW1pbHk9InNhbnMtc2VyaWYiIGZvbnQtc2l6ZT0iMTQiIGxlbmd0aEFkanVzdD0ic3BhY2luZyIgdGV4dExlbmd0aD0iMjgiIHg9Ijg5OC43NSIgeT0iMjguNzQyMiI+VXNlcjwvdGV4dD48bGluZSBzdHlsZT0ic3Ryb2tlOiMxODE4MTg7c3Ryb2tlLXdpZHRoOjAuNTsiIHgxPSI4MDMiIHgyPSI5OTAiIHkxPSIzOSIgeTI9IjM5Ii8+PGVsbGlwc2UgY3g9IjgxMyIgY3k9IjUxLjk5MjIiIGZpbGw9Im5vbmUiIHJ4PSIzIiByeT0iMyIgc3R5bGU9InN0cm9rZTojMDM4MDQ4O3N0cm9rZS13aWR0aDoxLjA7Ii8+PHRleHQgZmlsbD0iIzAwMDAwMCIgZm9udC1mYW1pbHk9InNhbnMtc2VyaWYiIGZvbnQtc2l6ZT0iMTQiIGxlbmd0aEFkanVzdD0ic3BhY2luZyIgdGV4dExlbmd0aD0iNzciIHg9IjgyMiIgeT0iNTYuMjM0NCI+VXNlcklEOiBpbnQ8L3RleHQ+PGVsbGlwc2UgY3g9IjgxMyIgY3k9IjY2Ljk3NjYiIGZpbGw9Im5vbmUiIHJ4PSIzIiByeT0iMyIgc3R5bGU9InN0cm9rZTojMDM4MDQ4O3N0cm9rZS13aWR0aDoxLjA7Ii8+PHRleHQgZmlsbD0iIzAwMDAwMCIgZm9udC1mYW1pbHk9InNhbnMtc2VyaWYiIGZvbnQtc2l6ZT0iMTQiIGxlbmd0aEFkanVzdD0ic3BhY2luZyIgdGV4dExlbmd0aD0iODUiIHg9IjgyMiIgeT0iNzEuMjE4OCI+TmFtZTogU3RyaW5nPC90ZXh0PjxlbGxpcHNlIGN4PSI4MTMiIGN5PSI4MS45NjA5IiBmaWxsPSJub25lIiByeD0iMyIgcnk9IjMiIHN0eWxlPSJzdHJva2U6IzAzODA0ODtzdHJva2Utd2lkdGg6MS4wOyIvPjx0ZXh0IGZpbGw9IiMwMDAwMDAiIGZvbnQtZmFtaWx5PSJzYW5zLXNlcmlmIiBmb250LXNpemU9IjE0IiBsZW5ndGhBZGp1c3Q9InNwYWNpbmciIHRleHRMZW5ndGg9IjkyIiB4PSI4MjIiIHk9Ijg2LjIwMzEiPkVtYWlsOiBTdHJpbmc8L3RleHQ+PGVsbGlwc2UgY3g9IjgxMyIgY3k9Ijk2Ljk0NTMiIGZpbGw9Im5vbmUiIHJ4PSIzIiByeT0iMyIgc3R5bGU9InN0cm9rZTojMDM4MDQ4O3N0cm9rZS13aWR0aDoxLjA7Ii8+PHRleHQgZmlsbD0iIzAwMDAwMCIgZm9udC1mYW1pbHk9InNhbnMtc2VyaWYiIGZvbnQtc2l6ZT0iMTQiIGxlbmd0aEFkanVzdD0ic3BhY2luZyIgdGV4dExlbmd0aD0iMTQxIiB4PSI4MjIiIHk9IjEwMS4xODc1Ij5QYXNzd29yZEhhc2g6IFN0cmluZzwvdGV4dD48ZWxsaXBzZSBjeD0iODEzIiBjeT0iMTExLjkyOTciIGZpbGw9Im5vbmUiIHJ4PSIzIiByeT0iMyIgc3R5bGU9InN0cm9rZTojMDM4MDQ4O3N0cm9rZS13aWR0aDoxLjA7Ii8+PHRleHQgZmlsbD0iIzAwMDAwMCIgZm9udC1mYW1pbHk9InNhbnMtc2VyaWYiIGZvbnQtc2l6ZT0iMTQiIGxlbmd0aEFkanVzdD0ic3BhY2luZyIgdGV4dExlbmd0aD0iODQiIHg9IjgyMiIgeT0iMTE2LjE3MTkiPlJvbGU6IFN0cmluZzwvdGV4dD48ZWxsaXBzZSBjeD0iODEzIiBjeT0iMTI2LjkxNDEiIGZpbGw9Im5vbmUiIHJ4PSIzIiByeT0iMyIgc3R5bGU9InN0cm9rZTojMDM4MDQ4O3N0cm9rZS13aWR0aDoxLjA7Ii8+PHRleHQgZmlsbD0iIzAwMDAwMCIgZm9udC1mYW1pbHk9InNhbnMtc2VyaWYiIGZvbnQtc2l6ZT0iMTQiIGxlbmd0aEFkanVzdD0ic3BhY2luZyIgdGV4dExlbmd0aD0iMTQxIiB4PSI4MjIiIHk9IjEzMS4xNTYzIj5TaWduVXBEYXRlOiBEYXRlVGltZTwvdGV4dD48bGluZSBzdHlsZT0ic3Ryb2tlOiMxODE4MTg7c3Ryb2tlLXdpZHRoOjAuNTsiIHgxPSI4MDMiIHgyPSI5OTAiIHkxPSIxMzYuOTA2MyIgeTI9IjEzNi45MDYzIi8+PGVsbGlwc2UgY3g9IjgxMyIgY3k9IjE0OS44OTg0IiBmaWxsPSIjODRCRTg0IiByeD0iMyIgcnk9IjMiIHN0eWxlPSJzdHJva2U6IzAzODA0ODtzdHJva2Utd2lkdGg6MS4wOyIvPjx0ZXh0IGZpbGw9IiMwMDAwMDAiIGZvbnQtZmFtaWx5PSJzYW5zLXNlcmlmIiBmb250LXNpemU9IjE0IiBsZW5ndGhBZGp1c3Q9InNwYWNpbmciIHRleHRMZW5ndGg9IjE2MyIgeD0iODIyIiB5PSIxNTQuMTQwNiI+YXV0aGVudGljYXRlKCk6IEJvb2xlYW48L3RleHQ+PGVsbGlwc2UgY3g9IjgxMyIgY3k9IjE2NC44ODI4IiBmaWxsPSIjODRCRTg0IiByeD0iMyIgcnk9IjMiIHN0eWxlPSJzdHJva2U6IzAzODA0ODtzdHJva2Utd2lkdGg6MS4wOyIvPjx0ZXh0IGZpbGw9IiMwMDAwMDAiIGZvbnQtZmFtaWx5PSJzYW5zLXNlcmlmIiBmb250LXNpemU9IjE0IiBsZW5ndGhBZGp1c3Q9InNwYWNpbmciIHRleHRMZW5ndGg9IjE0OSIgeD0iODIyIiB5PSIxNjkuMTI1Ij51cGRhdGVQcm9maWxlKCk6IHZvaWQ8L3RleHQ+PC9nPjwhLS1jbGFzcyBVc2VyUHJvZmlsZS0tPjxnIGlkPSJlbGVtX1VzZXJQcm9maWxlIj48cmVjdCBjb2RlTGluZT0iMTIiIGZpbGw9IiNGMUYxRjEiIGhlaWdodD0iMTIyLjkyMTkiIGlkPSJVc2VyUHJvZmlsZSIgcng9IjIuNSIgcnk9IjIuNSIgc3R5bGU9InN0cm9rZTojMTgxODE4O3N0cm9rZS13aWR0aDowLjU7IiB3aWR0aD0iMjAzIiB4PSI2NzkiIHk9IjIzNSIvPjxlbGxpcHNlIGN4PSI3MzcuNzUiIGN5PSIyNTEiIGZpbGw9IiNBREQxQjIiIHJ4PSIxMSIgcnk9IjExIiBzdHlsZT0ic3Ryb2tlOiMxODE4MTg7c3Ryb2tlLXdpZHRoOjEuMDsiLz48cGF0aCBkPSJNNzM1LjM3NSwyNTUuMjUgTDczNS4zNzUsMjU3IEw3NDAuMzEyNSwyNTcgTDc0MC4zMTI1LDI1NS4yNSBMNzM1LjM3NSwyNTUuMjUgWiBNNzM2LjA2MjUsMjU1LjkzNzUgUTczNi4wNjI1LDI1NS45Mzc1IDczNi4wNjI1LDI0Ni43NSBMNzM0LjMxMjUsMjQ2Ljc1IFE3MzQuMzEyNSwyNDYuNzUgNzM0LjMxMjUsMjU1LjkzNzUgTDczNi4wNjI1LDI1NS45Mzc1IFogTTczOS42MjUsMjU1LjkzNzUgTDc0MS4zNzUsMjU1LjkzNzUgUTc0MS4zNzUsMjU1LjkzNzUgNzQxLjM3NSwyNTMuMTI1IEw3MzkuNjI1LDI1My4xMjUgUTczOS42MjUsMjUzLjEyNSA3MzkuNjI1LDI1NS45Mzc1IFogTTczOS42MjUsMjQ2Ljc1IFE3MzkuNjI1LDI0Ni43NSA3MzkuNjI1LDI0OS41NjI1IEw3NDEuMzc1LDI0OS41NjI1IFE3NDEuMzc1LDI0OS41NjI1IDc0MS4zNzUsMjQ2Ljc1IEw3MzkuNjI1LDI0Ni43NSBaIE03MzUuMzc1LDI0Ny40Mzc1IEw3NDAuMzEyNSwyNDcuNDM3NSBMNzQwLjMxMjUsMjQ1LjY4NzUgTDczNS4zNzUsMjQ1LjY4NzUgTDczNS4zNzUsMjQ3LjQzNzUgWiAiIGZpbGw9IiMwMDAwMDAiLz48dGV4dCBmaWxsPSIjMDAwMDAwIiBmb250LWZhbWlseT0ic2Fucy1zZXJpZiIgZm9udC1zaXplPSIxNCIgbGVuZ3RoQWRqdXN0PSJzcGFjaW5nIiB0ZXh0TGVuZ3RoPSI3NyIgeD0iNzU4LjI1IiB5PSIyNTYuNzQyMiI+VXNlclByb2ZpbGU8L3RleHQ+PGxpbmUgc3R5bGU9InN0cm9rZTojMTgxODE4O3N0cm9rZS13aWR0aDowLjU7IiB4MT0iNjgwIiB4Mj0iODgxIiB5MT0iMjY3IiB5Mj0iMjY3Ii8+PGVsbGlwc2UgY3g9IjY5MCIgY3k9IjI3OS45OTIyIiBmaWxsPSJub25lIiByeD0iMyIgcnk9IjMiIHN0eWxlPSJzdHJva2U6IzAzODA0ODtzdHJva2Utd2lkdGg6MS4wOyIvPjx0ZXh0IGZpbGw9IiMwMDAwMDAiIGZvbnQtZmFtaWx5PSJzYW5zLXNlcmlmIiBmb250LXNpemU9IjE0IiBsZW5ndGhBZGp1c3Q9InNwYWNpbmciIHRleHRMZW5ndGg9Ijk4IiB4PSI2OTkiIHk9IjI4NC4yMzQ0Ij5Qcm9maWxlSUQ6IGludDwvdGV4dD48ZWxsaXBzZSBjeD0iNjkwIiBjeT0iMjk0Ljk3NjYiIGZpbGw9Im5vbmUiIHJ4PSIzIiByeT0iMyIgc3R5bGU9InN0cm9rZTojMDM4MDQ4O3N0cm9rZS13aWR0aDoxLjA7Ii8+PHRleHQgZmlsbD0iIzAwMDAwMCIgZm9udC1mYW1pbHk9InNhbnMtc2VyaWYiIGZvbnQtc2l6ZT0iMTQiIGxlbmd0aEFkanVzdD0ic3BhY2luZyIgdGV4dExlbmd0aD0iOTEiIHg9IjY5OSIgeT0iMjk5LjIxODgiPkdvYWxzOiBTdHJpbmc8L3RleHQ+PGVsbGlwc2UgY3g9IjY5MCIgY3k9IjMwOS45NjA5IiBmaWxsPSJub25lIiByeD0iMyIgcnk9IjMiIHN0eWxlPSJzdHJva2U6IzAzODA0ODtzdHJva2Utd2lkdGg6MS4wOyIvPjx0ZXh0IGZpbGw9IiMwMDAwMDAiIGZvbnQtZmFtaWx5PSJzYW5zLXNlcmlmIiBmb250LXNpemU9IjE0IiBsZW5ndGhBZGp1c3Q9InNwYWNpbmciIHRleHRMZW5ndGg9IjExOSIgeD0iNjk5IiB5PSIzMTQuMjAzMSI+SW50ZXJlc3RzOiBTdHJpbmc8L3RleHQ+PGVsbGlwc2UgY3g9IjY5MCIgY3k9IjMyNC45NDUzIiBmaWxsPSJub25lIiByeD0iMyIgcnk9IjMiIHN0eWxlPSJzdHJva2U6IzAzODA0ODtzdHJva2Utd2lkdGg6MS4wOyIvPjx0ZXh0IGZpbGw9IiMwMDAwMDAiIGZvbnQtZmFtaWx5PSJzYW5zLXNlcmlmIiBmb250LXNpemU9IjE0IiBsZW5ndGhBZGp1c3Q9InNwYWNpbmciIHRleHRMZW5ndGg9Ijk4IiB4PSI2OTkiIHk9IjMyOS4xODc1Ij5Ta2lsbHM6IFN0cmluZzwvdGV4dD48bGluZSBzdHlsZT0ic3Ryb2tlOiMxODE4MTg7c3Ryb2tlLXdpZHRoOjAuNTsiIHgxPSI2ODAiIHgyPSI4ODEiIHkxPSIzMzQuOTM3NSIgeTI9IjMzNC45Mzc1Ii8+PGVsbGlwc2UgY3g9IjY5MCIgY3k9IjM0Ny45Mjk3IiBmaWxsPSIjODRCRTg0IiByeD0iMyIgcnk9IjMiIHN0eWxlPSJzdHJva2U6IzAzODA0ODtzdHJva2Utd2lkdGg6MS4wOyIvPjx0ZXh0IGZpbGw9IiMwMDAwMDAiIGZvbnQtZmFtaWx5PSJzYW5zLXNlcmlmIiBmb250LXNpemU9IjE0IiBsZW5ndGhBZGp1c3Q9InNwYWNpbmciIHRleHRMZW5ndGg9IjE3NyIgeD0iNjk5IiB5PSIzNTIuMTcxOSI+dXBkYXRlUHJlZmVyZW5jZXMoKTogdm9pZDwvdGV4dD48L2c+PCEtLWNsYXNzIEFzc2Vzc21lbnQtLT48ZyBpZD0iZWxlbV9Bc3Nlc3NtZW50Ij48cmVjdCBjb2RlTGluZT0iMjAiIGZpbGw9IiNGMUYxRjEiIGhlaWdodD0iMTA3LjkzNzUiIGlkPSJBc3Nlc3NtZW50IiByeD0iMi41IiByeT0iMi41IiBzdHlsZT0ic3Ryb2tlOiMxODE4MTg7c3Ryb2tlLXdpZHRoOjAuNTsiIHdpZHRoPSIxOTciIHg9IjciIHk9IjM3Ii8+PGVsbGlwc2UgY3g9IjY1Ljc1IiBjeT0iNTMiIGZpbGw9IiNBREQxQjIiIHJ4PSIxMSIgcnk9IjExIiBzdHlsZT0ic3Ryb2tlOiMxODE4MTg7c3Ryb2tlLXdpZHRoOjEuMDsiLz48cGF0aCBkPSJNNjMuMzc1LDU3LjI1IEw2My4zNzUsNTkgTDY4LjMxMjUsNTkgTDY4LjMxMjUsNTcuMjUgTDYzLjM3NSw1Ny4yNSBaIE02NC4wNjI1LDU3LjkzNzUgUTY0LjA2MjUsNTcuOTM3NSA2NC4wNjI1LDQ4Ljc1IEw2Mi4zMTI1LDQ4Ljc1IFE2Mi4zMTI1LDQ4Ljc1IDYyLjMxMjUsNTcuOTM3NSBMNjQuMDYyNSw1Ny45Mzc1IFogTTY3LjYyNSw1Ny45Mzc1IEw2OS4zNzUsNTcuOTM3NSBRNjkuMzc1LDU3LjkzNzUgNjkuMzc1LDU1LjEyNSBMNjcuNjI1LDU1LjEyNSBRNjcuNjI1LDU1LjEyNSA2Ny42MjUsNTcuOTM3NSBaIE02Ny42MjUsNDguNzUgUTY3LjYyNSw0OC43NSA2Ny42MjUsNTEuNTYyNSBMNjkuMzc1LDUxLjU2MjUgUTY5LjM3NSw1MS41NjI1IDY5LjM3NSw0OC43NSBMNjcuNjI1LDQ4Ljc1IFogTTYzLjM3NSw0OS40Mzc1IEw2OC4zMTI1LDQ5LjQzNzUgTDY4LjMxMjUsNDcuNjg3NSBMNjMuMzc1LDQ3LjY4NzUgTDYzLjM3NSw0OS40Mzc1IFogIiBmaWxsPSIjMDAwMDAwIi8+PHRleHQgZmlsbD0iIzAwMDAwMCIgZm9udC1mYW1pbHk9InNhbnMtc2VyaWYiIGZvbnQtc2l6ZT0iMTQiIGxlbmd0aEFkanVzdD0ic3BhY2luZyIgdGV4dExlbmd0aD0iNzEiIHg9Ijg2LjI1IiB5PSI1OC43NDIyIj5Bc3Nlc3NtZW50PC90ZXh0PjxsaW5lIHN0eWxlPSJzdHJva2U6IzE4MTgxODtzdHJva2Utd2lkdGg6MC41OyIgeDE9IjgiIHgyPSIyMDMiIHkxPSI2OSIgeTI9IjY5Ii8+PGVsbGlwc2UgY3g9IjE4IiBjeT0iODEuOTkyMiIgZmlsbD0ibm9uZSIgcng9IjMiIHJ5PSIzIiBzdHlsZT0ic3Ryb2tlOiMwMzgwNDg7c3Ryb2tlLXdpZHRoOjEuMDsiLz48dGV4dCBmaWxsPSIjMDAwMDAwIiBmb250LWZhbWlseT0ic2Fucy1zZXJpZiIgZm9udC1zaXplPSIxNCIgbGVuZ3RoQWRqdXN0PSJzcGFjaW5nIiB0ZXh0TGVuZ3RoPSIxMjAiIHg9IjI3IiB5PSI4Ni4yMzQ0Ij5Bc3Nlc3NtZW50SUQ6IGludDwvdGV4dD48ZWxsaXBzZSBjeD0iMTgiIGN5PSI5Ni45NzY2IiBmaWxsPSJub25lIiByeD0iMyIgcnk9IjMiIHN0eWxlPSJzdHJva2U6IzAzODA0ODtzdHJva2Utd2lkdGg6MS4wOyIvPjx0ZXh0IGZpbGw9IiMwMDAwMDAiIGZvbnQtZmFtaWx5PSJzYW5zLXNlcmlmIiBmb250LXNpemU9IjE0IiBsZW5ndGhBZGp1c3Q9InNwYWNpbmciIHRleHRMZW5ndGg9Ijg0IiB4PSIyNyIgeT0iMTAxLjIxODgiPlR5cGU6IFN0cmluZzwvdGV4dD48ZWxsaXBzZSBjeD0iMTgiIGN5PSIxMTEuOTYwOSIgZmlsbD0ibm9uZSIgcng9IjMiIHJ5PSIzIiBzdHlsZT0ic3Ryb2tlOiMwMzgwNDg7c3Ryb2tlLXdpZHRoOjEuMDsiLz48dGV4dCBmaWxsPSIjMDAwMDAwIiBmb250LWZhbWlseT0ic2Fucy1zZXJpZiIgZm9udC1zaXplPSIxNCIgbGVuZ3RoQWRqdXN0PSJzcGFjaW5nIiB0ZXh0TGVuZ3RoPSIxMzMiIHg9IjI3IiB5PSIxMTYuMjAzMSI+RGVzY3JpcHRpb246IFN0cmluZzwvdGV4dD48bGluZSBzdHlsZT0ic3Ryb2tlOiMxODE4MTg7c3Ryb2tlLXdpZHRoOjAuNTsiIHgxPSI4IiB4Mj0iMjAzIiB5MT0iMTIxLjk1MzEiIHkyPSIxMjEuOTUzMSIvPjxlbGxpcHNlIGN4PSIxOCIgY3k9IjEzNC45NDUzIiBmaWxsPSIjODRCRTg0IiByeD0iMyIgcnk9IjMiIHN0eWxlPSJzdHJva2U6IzAzODA0ODtzdHJva2Utd2lkdGg6MS4wOyIvPjx0ZXh0IGZpbGw9IiMwMDAwMDAiIGZvbnQtZmFtaWx5PSJzYW5zLXNlcmlmIiBmb250LXNpemU9IjE0IiBsZW5ndGhBZGp1c3Q9InNwYWNpbmciIHRleHRMZW5ndGg9IjE3MSIgeD0iMjciIHk9IjEzOS4xODc1Ij5jcmVhdGVBc3Nlc3NtZW50KCk6IHZvaWQ8L3RleHQ+PC9nPjwhLS1jbGFzcyBBc3Nlc3NtZW50UmVzdWx0LS0+PGcgaWQ9ImVsZW1fQXNzZXNzbWVudFJlc3VsdCI+PHJlY3QgY29kZUxpbmU9IjI3IiBmaWxsPSIjRjFGMUYxIiBoZWlnaHQ9IjEyMi45MjE5IiBpZD0iQXNzZXNzbWVudFJlc3VsdCIgcng9IjIuNSIgcnk9IjIuNSIgc3R5bGU9InN0cm9rZTojMTgxODE4O3N0cm9rZS13aWR0aDowLjU7IiB3aWR0aD0iMTg5IiB4PSIxNiIgeT0iMjM1Ii8+PGVsbGlwc2UgY3g9IjUwLjgiIGN5PSIyNTEiIGZpbGw9IiNBREQxQjIiIHJ4PSIxMSIgcnk9IjExIiBzdHlsZT0ic3Ryb2tlOiMxODE4MTg7c3Ryb2tlLXdpZHRoOjEuMDsiLz48cGF0aCBkPSJNNDguNDI1LDI1NS4yNSBMNDguNDI1LDI1NyBMNTMuMzYyNSwyNTcgTDUzLjM2MjUsMjU1LjI1IEw0OC40MjUsMjU1LjI1IFogTTQ5LjExMjUsMjU1LjkzNzUgUTQ5LjExMjUsMjU1LjkzNzUgNDkuMTEyNSwyNDYuNzUgTDQ3LjM2MjUsMjQ2Ljc1IFE0Ny4zNjI1LDI0Ni43NSA0Ny4zNjI1LDI1NS45Mzc1IEw0OS4xMTI1LDI1NS45Mzc1IFogTTUyLjY3NSwyNTUuOTM3NSBMNTQuNDI1LDI1NS45Mzc1IFE1NC40MjUsMjU1LjkzNzUgNTQuNDI1LDI1My4xMjUgTDUyLjY3NSwyNTMuMTI1IFE1Mi42NzUsMjUzLjEyNSA1Mi42NzUsMjU1LjkzNzUgWiBNNTIuNjc1LDI0Ni43NSBRNTIuNjc1LDI0Ni43NSA1Mi42NzUsMjQ5LjU2MjUgTDU0LjQyNSwyNDkuNTYyNSBRNTQuNDI1LDI0OS41NjI1IDU0LjQyNSwyNDYuNzUgTDUyLjY3NSwyNDYuNzUgWiBNNDguNDI1LDI0Ny40Mzc1IEw1My4zNjI1LDI0Ny40Mzc1IEw1My4zNjI1LDI0NS42ODc1IEw0OC40MjUsMjQ1LjY4NzUgTDQ4LjQyNSwyNDcuNDM3NSBaICIgZmlsbD0iIzAwMDAwMCIvPjx0ZXh0IGZpbGw9IiMwMDAwMDAiIGZvbnQtZmFtaWx5PSJzYW5zLXNlcmlmIiBmb250LXNpemU9IjE0IiBsZW5ndGhBZGp1c3Q9InNwYWNpbmciIHRleHRMZW5ndGg9IjExMyIgeD0iNjkuMiIgeT0iMjU2Ljc0MjIiPkFzc2Vzc21lbnRSZXN1bHQ8L3RleHQ+PGxpbmUgc3R5bGU9InN0cm9rZTojMTgxODE4O3N0cm9rZS13aWR0aDowLjU7IiB4MT0iMTciIHgyPSIyMDQiIHkxPSIyNjciIHkyPSIyNjciLz48ZWxsaXBzZSBjeD0iMjciIGN5PSIyNzkuOTkyMiIgZmlsbD0ibm9uZSIgcng9IjMiIHJ5PSIzIiBzdHlsZT0ic3Ryb2tlOiMwMzgwNDg7c3Ryb2tlLXdpZHRoOjEuMDsiLz48dGV4dCBmaWxsPSIjMDAwMDAwIiBmb250LWZhbWlseT0ic2Fucy1zZXJpZiIgZm9udC1zaXplPSIxNCIgbGVuZ3RoQWRqdXN0PSJzcGFjaW5nIiB0ZXh0TGVuZ3RoPSI5MSIgeD0iMzYiIHk9IjI4NC4yMzQ0Ij5SZXN1bHRJRDogaW50PC90ZXh0PjxlbGxpcHNlIGN4PSIyNyIgY3k9IjI5NC45NzY2IiBmaWxsPSJub25lIiByeD0iMyIgcnk9IjMiIHN0eWxlPSJzdHJva2U6IzAzODA0ODtzdHJva2Utd2lkdGg6MS4wOyIvPjx0ZXh0IGZpbGw9IiMwMDAwMDAiIGZvbnQtZmFtaWx5PSJzYW5zLXNlcmlmIiBmb250LXNpemU9IjE0IiBsZW5ndGhBZGp1c3Q9InNwYWNpbmciIHRleHRMZW5ndGg9Ijg0IiB4PSIzNiIgeT0iMjk5LjIxODgiPlNjb3JlOiBmbG9hdDwvdGV4dD48ZWxsaXBzZSBjeD0iMjciIGN5PSIzMDkuOTYwOSIgZmlsbD0ibm9uZSIgcng9IjMiIHJ5PSIzIiBzdHlsZT0ic3Ryb2tlOiMwMzgwNDg7c3Ryb2tlLXdpZHRoOjEuMDsiLz48dGV4dCBmaWxsPSIjMDAwMDAwIiBmb250LWZhbWlseT0ic2Fucy1zZXJpZiIgZm9udC1zaXplPSIxNCIgbGVuZ3RoQWRqdXN0PSJzcGFjaW5nIiB0ZXh0TGVuZ3RoPSIxNjEiIHg9IjM2IiB5PSIzMTQuMjAzMSI+R2VuZXJhdGVkUmVwb3J0OiBTdHJpbmc8L3RleHQ+PGVsbGlwc2UgY3g9IjI3IiBjeT0iMzI0Ljk0NTMiIGZpbGw9Im5vbmUiIHJ4PSIzIiByeT0iMyIgc3R5bGU9InN0cm9rZTojMDM4MDQ4O3N0cm9rZS13aWR0aDoxLjA7Ii8+PHRleHQgZmlsbD0iIzAwMDAwMCIgZm9udC1mYW1pbHk9InNhbnMtc2VyaWYiIGZvbnQtc2l6ZT0iMTQiIGxlbmd0aEFkanVzdD0ic3BhY2luZyIgdGV4dExlbmd0aD0iMTYzIiB4PSIzNiIgeT0iMzI5LjE4NzUiPkNvbXBsZXRlZERhdGU6IERhdGVUaW1lPC90ZXh0PjxsaW5lIHN0eWxlPSJzdHJva2U6IzE4MTgxODtzdHJva2Utd2lkdGg6MC41OyIgeDE9IjE3IiB4Mj0iMjA0IiB5MT0iMzM0LjkzNzUiIHkyPSIzMzQuOTM3NSIvPjxlbGxpcHNlIGN4PSIyNyIgY3k9IjM0Ny45Mjk3IiBmaWxsPSIjODRCRTg0IiByeD0iMyIgcnk9IjMiIHN0eWxlPSJzdHJva2U6IzAzODA0ODtzdHJva2Utd2lkdGg6MS4wOyIvPjx0ZXh0IGZpbGw9IiMwMDAwMDAiIGZvbnQtZmFtaWx5PSJzYW5zLXNlcmlmIiBmb250LXNpemU9IjE0IiBsZW5ndGhBZGp1c3Q9InNwYWNpbmciIHRleHRMZW5ndGg9IjE1NiIgeD0iMzYiIHk9IjM1Mi4xNzE5Ij5nZW5lcmF0ZVJlcG9ydCgpOiB2b2lkPC90ZXh0PjwvZz48IS0tY2xhc3MgUm9hZG1hcC0tPjxnIGlkPSJlbGVtX1JvYWRtYXAiPjxyZWN0IGNvZGVMaW5lPSIzNSIgZmlsbD0iI0YxRjFGMSIgaGVpZ2h0PSIxMDcuOTM3NSIgaWQ9IlJvYWRtYXAiIHJ4PSIyLjUiIHJ5PSIyLjUiIHN0eWxlPSJzdHJva2U6IzE4MTgxODtzdHJva2Utd2lkdGg6MC41OyIgd2lkdGg9IjE5MCIgeD0iOTE3LjUiIHk9IjI0Mi41Ii8+PGVsbGlwc2UgY3g9Ijk4My4yNSIgY3k9IjI1OC41IiBmaWxsPSIjQUREMUIyIiByeD0iMTEiIHJ5PSIxMSIgc3R5bGU9InN0cm9rZTojMTgxODE4O3N0cm9rZS13aWR0aDoxLjA7Ii8+PHBhdGggZD0iTTk4MC44NzUsMjYyLjc1IEw5ODAuODc1LDI2NC41IEw5ODUuODEyNSwyNjQuNSBMOTg1LjgxMjUsMjYyLjc1IEw5ODAuODc1LDI2Mi43NSBaIE05ODEuNTYyNSwyNjMuNDM3NSBROTgxLjU2MjUsMjYzLjQzNzUgOTgxLjU2MjUsMjU0LjI1IEw5NzkuODEyNSwyNTQuMjUgUTk3OS44MTI1LDI1NC4yNSA5NzkuODEyNSwyNjMuNDM3NSBMOTgxLjU2MjUsMjYzLjQzNzUgWiBNOTg1LjEyNSwyNjMuNDM3NSBMOTg2Ljg3NSwyNjMuNDM3NSBROTg2Ljg3NSwyNjMuNDM3NSA5ODYuODc1LDI2MC42MjUgTDk4NS4xMjUsMjYwLjYyNSBROTg1LjEyNSwyNjAuNjI1IDk4NS4xMjUsMjYzLjQzNzUgWiBNOTg1LjEyNSwyNTQuMjUgUTk4NS4xMjUsMjU0LjI1IDk4NS4xMjUsMjU3LjA2MjUgTDk4Ni44NzUsMjU3LjA2MjUgUTk4Ni44NzUsMjU3LjA2MjUgOTg2Ljg3NSwyNTQuMjUgTDk4NS4xMjUsMjU0LjI1IFogTTk4MC44NzUsMjU0LjkzNzUgTDk4NS44MTI1LDI1NC45Mzc1IEw5ODUuODEyNSwyNTMuMTg3NSBMOTgwLjg3NSwyNTMuMTg3NSBMOTgwLjg3NSwyNTQuOTM3NSBaICIgZmlsbD0iIzAwMDAwMCIvPjx0ZXh0IGZpbGw9IiMwMDAwMDAiIGZvbnQtZmFtaWx5PSJzYW5zLXNlcmlmIiBmb250LXNpemU9IjE0IiBsZW5ndGhBZGp1c3Q9InNwYWNpbmciIHRleHRMZW5ndGg9IjUwIiB4PSIxMDAzLjc1IiB5PSIyNjQuMjQyMiI+Um9hZG1hcDwvdGV4dD48bGluZSBzdHlsZT0ic3Ryb2tlOiMxODE4MTg7c3Ryb2tlLXdpZHRoOjAuNTsiIHgxPSI5MTguNSIgeDI9IjExMDYuNSIgeTE9IjI3NC41IiB5Mj0iMjc0LjUiLz48ZWxsaXBzZSBjeD0iOTI4LjUiIGN5PSIyODcuNDkyMiIgZmlsbD0ibm9uZSIgcng9IjMiIHJ5PSIzIiBzdHlsZT0ic3Ryb2tlOiMwMzgwNDg7c3Ryb2tlLXdpZHRoOjEuMDsiLz48dGV4dCBmaWxsPSIjMDAwMDAwIiBmb250LWZhbWlseT0ic2Fucy1zZXJpZiIgZm9udC1zaXplPSIxNCIgbGVuZ3RoQWRqdXN0PSJzcGFjaW5nIiB0ZXh0TGVuZ3RoPSI5OSIgeD0iOTM3LjUiIHk9IjI5MS43MzQ0Ij5Sb2FkbWFwSUQ6IGludDwvdGV4dD48ZWxsaXBzZSBjeD0iOTI4LjUiIGN5PSIzMDIuNDc2NiIgZmlsbD0ibm9uZSIgcng9IjMiIHJ5PSIzIiBzdHlsZT0ic3Ryb2tlOiMwMzgwNDg7c3Ryb2tlLXdpZHRoOjEuMDsiLz48dGV4dCBmaWxsPSIjMDAwMDAwIiBmb250LWZhbWlseT0ic2Fucy1zZXJpZiIgZm9udC1zaXplPSIxNCIgbGVuZ3RoQWRqdXN0PSJzcGFjaW5nIiB0ZXh0TGVuZ3RoPSIxMzQiIHg9IjkzNy41IiB5PSIzMDYuNzE4OCI+Um9hZG1hcFR5cGU6IFN0cmluZzwvdGV4dD48ZWxsaXBzZSBjeD0iOTI4LjUiIGN5PSIzMTcuNDYwOSIgZmlsbD0ibm9uZSIgcng9IjMiIHJ5PSIzIiBzdHlsZT0ic3Ryb2tlOiMwMzgwNDg7c3Ryb2tlLXdpZHRoOjEuMDsiLz48dGV4dCBmaWxsPSIjMDAwMDAwIiBmb250LWZhbWlseT0ic2Fucy1zZXJpZiIgZm9udC1zaXplPSIxNCIgbGVuZ3RoQWRqdXN0PSJzcGFjaW5nIiB0ZXh0TGVuZ3RoPSIxNDgiIHg9IjkzNy41IiB5PSIzMjEuNzAzMSI+Q3JlYXRlZERhdGU6IERhdGVUaW1lPC90ZXh0PjxsaW5lIHN0eWxlPSJzdHJva2U6IzE4MTgxODtzdHJva2Utd2lkdGg6MC41OyIgeDE9IjkxOC41IiB4Mj0iMTEwNi41IiB5MT0iMzI3LjQ1MzEiIHkyPSIzMjcuNDUzMSIvPjxlbGxpcHNlIGN4PSI5MjguNSIgY3k9IjM0MC40NDUzIiBmaWxsPSIjODRCRTg0IiByeD0iMyIgcnk9IjMiIHN0eWxlPSJzdHJva2U6IzAzODA0ODtzdHJva2Utd2lkdGg6MS4wOyIvPjx0ZXh0IGZpbGw9IiMwMDAwMDAiIGZvbnQtZmFtaWx5PSJzYW5zLXNlcmlmIiBmb250LXNpemU9IjE0IiBsZW5ndGhBZGp1c3Q9InNwYWNpbmciIHRleHRMZW5ndGg9IjE2NCIgeD0iOTM3LjUiIHk9IjM0NC42ODc1Ij5nZW5lcmF0ZVJvYWRtYXAoKTogdm9pZDwvdGV4dD48L2c+PCEtLWNsYXNzIFJvYWRtYXBTdGVwLS0+PGcgaWQ9ImVsZW1fUm9hZG1hcFN0ZXAiPjxyZWN0IGNvZGVMaW5lPSI0MiIgZmlsbD0iI0YxRjFGMSIgaGVpZ2h0PSIxMDcuOTM3NSIgaWQ9IlJvYWRtYXBTdGVwIiByeD0iMi41IiByeT0iMi41IiBzdHlsZT0ic3Ryb2tlOiMxODE4MTg7c3Ryb2tlLXdpZHRoOjAuNTsiIHdpZHRoPSIxOTEiIHg9IjgxMSIgeT0iNDI1LjUiLz48ZWxsaXBzZSBjeD0iODYzLjI1IiBjeT0iNDQxLjUiIGZpbGw9IiNBREQxQjIiIHJ4PSIxMSIgcnk9IjExIiBzdHlsZT0ic3Ryb2tlOiMxODE4MTg7c3Ryb2tlLXdpZHRoOjEuMDsiLz48cGF0aCBkPSJNODYwLjg3NSw0NDUuNzUgTDg2MC44NzUsNDQ3LjUgTDg2NS44MTI1LDQ0Ny41IEw4NjUuODEyNSw0NDUuNzUgTDg2MC44NzUsNDQ1Ljc1IFogTTg2MS41NjI1LDQ0Ni40Mzc1IFE4NjEuNTYyNSw0NDYuNDM3NSA4NjEuNTYyNSw0MzcuMjUgTDg1OS44MTI1LDQzNy4yNSBRODU5LjgxMjUsNDM3LjI1IDg1OS44MTI1LDQ0Ni40Mzc1IEw4NjEuNTYyNSw0NDYuNDM3NSBaIE04NjUuMTI1LDQ0Ni40Mzc1IEw4NjYuODc1LDQ0Ni40Mzc1IFE4NjYuODc1LDQ0Ni40Mzc1IDg2Ni44NzUsNDQzLjYyNSBMODY1LjEyNSw0NDMuNjI1IFE4NjUuMTI1LDQ0My42MjUgODY1LjEyNSw0NDYuNDM3NSBaIE04NjUuMTI1LDQzNy4yNSBRODY1LjEyNSw0MzcuMjUgODY1LjEyNSw0NDAuMDYyNSBMODY2Ljg3NSw0NDAuMDYyNSBRODY2Ljg3NSw0NDAuMDYyNSA4NjYuODc1LDQzNy4yNSBMODY1LjEyNSw0MzcuMjUgWiBNODYwLjg3NSw0MzcuOTM3NSBMODY1LjgxMjUsNDM3LjkzNzUgTDg2NS44MTI1LDQzNi4xODc1IEw4NjAuODc1LDQzNi4xODc1IEw4NjAuODc1LDQzNy45Mzc1IFogIiBmaWxsPSIjMDAwMDAwIi8+PHRleHQgZmlsbD0iIzAwMDAwMCIgZm9udC1mYW1pbHk9InNhbnMtc2VyaWYiIGZvbnQtc2l6ZT0iMTQiIGxlbmd0aEFkanVzdD0ic3BhY2luZyIgdGV4dExlbmd0aD0iNzgiIHg9Ijg4My43NSIgeT0iNDQ3LjI0MjIiPlJvYWRtYXBTdGVwPC90ZXh0PjxsaW5lIHN0eWxlPSJzdHJva2U6IzE4MTgxODtzdHJva2Utd2lkdGg6MC41OyIgeDE9IjgxMiIgeDI9IjEwMDEiIHkxPSI0NTcuNSIgeTI9IjQ1Ny41Ii8+PGVsbGlwc2UgY3g9IjgyMiIgY3k9IjQ3MC40OTIyIiBmaWxsPSJub25lIiByeD0iMyIgcnk9IjMiIHN0eWxlPSJzdHJva2U6IzAzODA0ODtzdHJva2Utd2lkdGg6MS4wOyIvPjx0ZXh0IGZpbGw9IiMwMDAwMDAiIGZvbnQtZmFtaWx5PSJzYW5zLXNlcmlmIiBmb250LXNpemU9IjE0IiBsZW5ndGhBZGp1c3Q9InNwYWNpbmciIHRleHRMZW5ndGg9Ijc3IiB4PSI4MzEiIHk9IjQ3NC43MzQ0Ij5TdGVwSUQ6IGludDwvdGV4dD48ZWxsaXBzZSBjeD0iODIyIiBjeT0iNDg1LjQ3NjYiIGZpbGw9Im5vbmUiIHJ4PSIzIiByeT0iMyIgc3R5bGU9InN0cm9rZTojMDM4MDQ4O3N0cm9rZS13aWR0aDoxLjA7Ii8+PHRleHQgZmlsbD0iIzAwMDAwMCIgZm9udC1mYW1pbHk9InNhbnMtc2VyaWYiIGZvbnQtc2l6ZT0iMTQiIGxlbmd0aEFkanVzdD0ic3BhY2luZyIgdGV4dExlbmd0aD0iMTYxIiB4PSI4MzEiIHk9IjQ4OS43MTg4Ij5TdGVwRGVzY3JpcHRpb246IFN0cmluZzwvdGV4dD48ZWxsaXBzZSBjeD0iODIyIiBjeT0iNTAwLjQ2MDkiIGZpbGw9Im5vbmUiIHJ4PSIzIiByeT0iMyIgc3R5bGU9InN0cm9rZTojMDM4MDQ4O3N0cm9rZS13aWR0aDoxLjA7Ii8+PHRleHQgZmlsbD0iIzAwMDAwMCIgZm9udC1mYW1pbHk9InNhbnMtc2VyaWYiIGZvbnQtc2l6ZT0iMTQiIGxlbmd0aEFkanVzdD0ic3BhY2luZyIgdGV4dExlbmd0aD0iMTQxIiB4PSI4MzEiIHk9IjUwNC43MDMxIj5Jc0NvbXBsZXRlZDogQm9vbGVhbjwvdGV4dD48bGluZSBzdHlsZT0ic3Ryb2tlOiMxODE4MTg7c3Ryb2tlLXdpZHRoOjAuNTsiIHgxPSI4MTIiIHgyPSIxMDAxIiB5MT0iNTEwLjQ1MzEiIHkyPSI1MTAuNDUzMSIvPjxlbGxpcHNlIGN4PSI4MjIiIGN5PSI1MjMuNDQ1MyIgZmlsbD0iIzg0QkU4NCIgcng9IjMiIHJ5PSIzIiBzdHlsZT0ic3Ryb2tlOiMwMzgwNDg7c3Ryb2tlLXdpZHRoOjEuMDsiLz48dGV4dCBmaWxsPSIjMDAwMDAwIiBmb250LWZhbWlseT0ic2Fucy1zZXJpZiIgZm9udC1zaXplPSIxNCIgbGVuZ3RoQWRqdXN0PSJzcGFjaW5nIiB0ZXh0TGVuZ3RoPSIxNjUiIHg9IjgzMSIgeT0iNTI3LjY4NzUiPm1hcmtBc0NvbXBsZXRlZCgpOiB2b2lkPC90ZXh0PjwvZz48IS0tY2xhc3MgQ29tbXVuaXR5LS0+PGcgaWQ9ImVsZW1fQ29tbXVuaXR5Ij48cmVjdCBjb2RlTGluZT0iNDkiIGZpbGw9IiNGMUYxRjEiIGhlaWdodD0iMTA3LjkzNzUiIGlkPSJDb21tdW5pdHkiIHJ4PSIyLjUiIHJ5PSIyLjUiIHN0eWxlPSJzdHJva2U6IzE4MTgxODtzdHJva2Utd2lkdGg6MC41OyIgd2lkdGg9IjE5MSIgeD0iMjM5IiB5PSIzNyIvPjxlbGxpcHNlIGN4PSIyOTcuNzUiIGN5PSI1MyIgZmlsbD0iI0FERDFCMiIgcng9IjExIiByeT0iMTEiIHN0eWxlPSJzdHJva2U6IzE4MTgxODtzdHJva2Utd2lkdGg6MS4wOyIvPjxwYXRoIGQ9Ik0yOTUuMzc1LDU3LjI1IEwyOTUuMzc1LDU5IEwzMDAuMzEyNSw1OSBMMzAwLjMxMjUsNTcuMjUgTDI5NS4zNzUsNTcuMjUgWiBNMjk2LjA2MjUsNTcuOTM3NSBRMjk2LjA2MjUsNTcuOTM3NSAyOTYuMDYyNSw0OC43NSBMMjk0LjMxMjUsNDguNzUgUTI5NC4zMTI1LDQ4Ljc1IDI5NC4zMTI1LDU3LjkzNzUgTDI5Ni4wNjI1LDU3LjkzNzUgWiBNMjk5LjYyNSw1Ny45Mzc1IEwzMDEuMzc1LDU3LjkzNzUgUTMwMS4zNzUsNTcuOTM3NSAzMDEuMzc1LDU1LjEyNSBMMjk5LjYyNSw1NS4xMjUgUTI5OS42MjUsNTUuMTI1IDI5OS42MjUsNTcuOTM3NSBaIE0yOTkuNjI1LDQ4Ljc1IFEyOTkuNjI1LDQ4Ljc1IDI5OS42MjUsNTEuNTYyNSBMMzAxLjM3NSw1MS41NjI1IFEzMDEuMzc1LDUxLjU2MjUgMzAxLjM3NSw0OC43NSBMMjk5LjYyNSw0OC43NSBaIE0yOTUuMzc1LDQ5LjQzNzUgTDMwMC4zMTI1LDQ5LjQzNzUgTDMwMC4zMTI1LDQ3LjY4NzUgTDI5NS4zNzUsNDcuNjg3NSBMMjk1LjM3NSw0OS40Mzc1IFogIiBmaWxsPSIjMDAwMDAwIi8+PHRleHQgZmlsbD0iIzAwMDAwMCIgZm9udC1mYW1pbHk9InNhbnMtc2VyaWYiIGZvbnQtc2l6ZT0iMTQiIGxlbmd0aEFkanVzdD0ic3BhY2luZyIgdGV4dExlbmd0aD0iNjUiIHg9IjMxOC4yNSIgeT0iNTguNzQyMiI+Q29tbXVuaXR5PC90ZXh0PjxsaW5lIHN0eWxlPSJzdHJva2U6IzE4MTgxODtzdHJva2Utd2lkdGg6MC41OyIgeDE9IjI0MCIgeDI9IjQyOSIgeTE9IjY5IiB5Mj0iNjkiLz48ZWxsaXBzZSBjeD0iMjUwIiBjeT0iODEuOTkyMiIgZmlsbD0ibm9uZSIgcng9IjMiIHJ5PSIzIiBzdHlsZT0ic3Ryb2tlOiMwMzgwNDg7c3Ryb2tlLXdpZHRoOjEuMDsiLz48dGV4dCBmaWxsPSIjMDAwMDAwIiBmb250LWZhbWlseT0ic2Fucy1zZXJpZiIgZm9udC1zaXplPSIxNCIgbGVuZ3RoQWRqdXN0PSJzcGFjaW5nIiB0ZXh0TGVuZ3RoPSIxMTQiIHg9IjI1OSIgeT0iODYuMjM0NCI+Q29tbXVuaXR5SUQ6IGludDwvdGV4dD48ZWxsaXBzZSBjeD0iMjUwIiBjeT0iOTYuOTc2NiIgZmlsbD0ibm9uZSIgcng9IjMiIHJ5PSIzIiBzdHlsZT0ic3Ryb2tlOiMwMzgwNDg7c3Ryb2tlLXdpZHRoOjEuMDsiLz48dGV4dCBmaWxsPSIjMDAwMDAwIiBmb250LWZhbWlseT0ic2Fucy1zZXJpZiIgZm9udC1zaXplPSIxNCIgbGVuZ3RoQWRqdXN0PSJzcGFjaW5nIiB0ZXh0TGVuZ3RoPSI4NSIgeD0iMjU5IiB5PSIxMDEuMjE4OCI+TmFtZTogU3RyaW5nPC90ZXh0PjxlbGxpcHNlIGN4PSIyNTAiIGN5PSIxMTEuOTYwOSIgZmlsbD0ibm9uZSIgcng9IjMiIHJ5PSIzIiBzdHlsZT0ic3Ryb2tlOiMwMzgwNDg7c3Ryb2tlLXdpZHRoOjEuMDsiLz48dGV4dCBmaWxsPSIjMDAwMDAwIiBmb250LWZhbWlseT0ic2Fucy1zZXJpZiIgZm9udC1zaXplPSIxNCIgbGVuZ3RoQWRqdXN0PSJzcGFjaW5nIiB0ZXh0TGVuZ3RoPSIxMzMiIHg9IjI1OSIgeT0iMTE2LjIwMzEiPkRlc2NyaXB0aW9uOiBTdHJpbmc8L3RleHQ+PGxpbmUgc3R5bGU9InN0cm9rZTojMTgxODE4O3N0cm9rZS13aWR0aDowLjU7IiB4MT0iMjQwIiB4Mj0iNDI5IiB5MT0iMTIxLjk1MzEiIHkyPSIxMjEuOTUzMSIvPjxlbGxpcHNlIGN4PSIyNTAiIGN5PSIxMzQuOTQ1MyIgZmlsbD0iIzg0QkU4NCIgcng9IjMiIHJ5PSIzIiBzdHlsZT0ic3Ryb2tlOiMwMzgwNDg7c3Ryb2tlLXdpZHRoOjEuMDsiLz48dGV4dCBmaWxsPSIjMDAwMDAwIiBmb250LWZhbWlseT0ic2Fucy1zZXJpZiIgZm9udC1zaXplPSIxNCIgbGVuZ3RoQWRqdXN0PSJzcGFjaW5nIiB0ZXh0TGVuZ3RoPSIxNjUiIHg9IjI1OSIgeT0iMTM5LjE4NzUiPmNyZWF0ZUNvbW11bml0eSgpOiB2b2lkPC90ZXh0PjwvZz48IS0tY2xhc3MgQ29tbXVuaXR5TWVtYmVyLS0+PGcgaWQ9ImVsZW1fQ29tbXVuaXR5TWVtYmVyIj48cmVjdCBjb2RlTGluZT0iNTYiIGZpbGw9IiNGMUYxRjEiIGhlaWdodD0iMTA3LjkzNzUiIGlkPSJDb21tdW5pdHlNZW1iZXIiIHJ4PSIyLjUiIHJ5PSIyLjUiIHN0eWxlPSJzdHJva2U6IzE4MTgxODtzdHJva2Utd2lkdGg6MC41OyIgd2lkdGg9IjE3NyIgeD0iMjQzIiB5PSIyNDIuNSIvPjxlbGxpcHNlIGN4PSIyNzQuNjUiIGN5PSIyNTguNSIgZmlsbD0iI0FERDFCMiIgcng9IjExIiByeT0iMTEiIHN0eWxlPSJzdHJva2U6IzE4MTgxODtzdHJva2Utd2lkdGg6MS4wOyIvPjxwYXRoIGQ9Ik0yNzIuMjc1LDI2Mi43NSBMMjcyLjI3NSwyNjQuNSBMMjc3LjIxMjUsMjY0LjUgTDI3Ny4yMTI1LDI2Mi43NSBMMjcyLjI3NSwyNjIuNzUgWiBNMjcyLjk2MjUsMjYzLjQzNzUgUTI3Mi45NjI1LDI2My40Mzc1IDI3Mi45NjI1LDI1NC4yNSBMMjcxLjIxMjUsMjU0LjI1IFEyNzEuMjEyNSwyNTQuMjUgMjcxLjIxMjUsMjYzLjQzNzUgTDI3Mi45NjI1LDI2My40Mzc1IFogTTI3Ni41MjUsMjYzLjQzNzUgTDI3OC4yNzUsMjYzLjQzNzUgUTI3OC4yNzUsMjYzLjQzNzUgMjc4LjI3NSwyNjAuNjI1IEwyNzYuNTI1LDI2MC42MjUgUTI3Ni41MjUsMjYwLjYyNSAyNzYuNTI1LDI2My40Mzc1IFogTTI3Ni41MjUsMjU0LjI1IFEyNzYuNTI1LDI1NC4yNSAyNzYuNTI1LDI1Ny4wNjI1IEwyNzguMjc1LDI1Ny4wNjI1IFEyNzguMjc1LDI1Ny4wNjI1IDI3OC4yNzUsMjU0LjI1IEwyNzYuNTI1LDI1NC4yNSBaIE0yNzIuMjc1LDI1NC45Mzc1IEwyNzcuMjEyNSwyNTQuOTM3NSBMMjc3LjIxMjUsMjUzLjE4NzUgTDI3Mi4yNzUsMjUzLjE4NzUgTDI3Mi4yNzUsMjU0LjkzNzUgWiAiIGZpbGw9IiMwMDAwMDAiLz48dGV4dCBmaWxsPSIjMDAwMDAwIiBmb250LWZhbWlseT0ic2Fucy1zZXJpZiIgZm9udC1zaXplPSIxNCIgbGVuZ3RoQWRqdXN0PSJzcGFjaW5nIiB0ZXh0TGVuZ3RoPSIxMDgiIHg9IjI5Mi4zNSIgeT0iMjY0LjI0MjIiPkNvbW11bml0eU1lbWJlcjwvdGV4dD48bGluZSBzdHlsZT0ic3Ryb2tlOiMxODE4MTg7c3Ryb2tlLXdpZHRoOjAuNTsiIHgxPSIyNDQiIHgyPSI0MTkiIHkxPSIyNzQuNSIgeTI9IjI3NC41Ii8+PGVsbGlwc2UgY3g9IjI1NCIgY3k9IjI4Ny40OTIyIiBmaWxsPSJub25lIiByeD0iMyIgcnk9IjMiIHN0eWxlPSJzdHJva2U6IzAzODA0ODtzdHJva2Utd2lkdGg6MS4wOyIvPjx0ZXh0IGZpbGw9IiMwMDAwMDAiIGZvbnQtZmFtaWx5PSJzYW5zLXNlcmlmIiBmb250LXNpemU9IjE0IiBsZW5ndGhBZGp1c3Q9InNwYWNpbmciIHRleHRMZW5ndGg9IjkyIiB4PSIyNjMiIHk9IjI5MS43MzQ0Ij5NZW1iZXJJRDogaW50PC90ZXh0PjxlbGxpcHNlIGN4PSIyNTQiIGN5PSIzMDIuNDc2NiIgZmlsbD0ibm9uZSIgcng9IjMiIHJ5PSIzIiBzdHlsZT0ic3Ryb2tlOiMwMzgwNDg7c3Ryb2tlLXdpZHRoOjEuMDsiLz48dGV4dCBmaWxsPSIjMDAwMDAwIiBmb250LWZhbWlseT0ic2Fucy1zZXJpZiIgZm9udC1zaXplPSIxNCIgbGVuZ3RoQWRqdXN0PSJzcGFjaW5nIiB0ZXh0TGVuZ3RoPSI4NCIgeD0iMjYzIiB5PSIzMDYuNzE4OCI+Um9sZTogU3RyaW5nPC90ZXh0PjxlbGxpcHNlIGN4PSIyNTQiIGN5PSIzMTcuNDYwOSIgZmlsbD0ibm9uZSIgcng9IjMiIHJ5PSIzIiBzdHlsZT0ic3Ryb2tlOiMwMzgwNDg7c3Ryb2tlLXdpZHRoOjEuMDsiLz48dGV4dCBmaWxsPSIjMDAwMDAwIiBmb250LWZhbWlseT0ic2Fucy1zZXJpZiIgZm9udC1zaXplPSIxNCIgbGVuZ3RoQWRqdXN0PSJzcGFjaW5nIiB0ZXh0TGVuZ3RoPSIxNDIiIHg9IjI2MyIgeT0iMzIxLjcwMzEiPkpvaW5lZERhdGU6IERhdGVUaW1lPC90ZXh0PjxsaW5lIHN0eWxlPSJzdHJva2U6IzE4MTgxODtzdHJva2Utd2lkdGg6MC41OyIgeDE9IjI0NCIgeDI9IjQxOSIgeTE9IjMyNy40NTMxIiB5Mj0iMzI3LjQ1MzEiLz48ZWxsaXBzZSBjeD0iMjU0IiBjeT0iMzQwLjQ0NTMiIGZpbGw9IiM4NEJFODQiIHJ4PSIzIiByeT0iMyIgc3R5bGU9InN0cm9rZTojMDM4MDQ4O3N0cm9rZS13aWR0aDoxLjA7Ii8+PHRleHQgZmlsbD0iIzAwMDAwMCIgZm9udC1mYW1pbHk9InNhbnMtc2VyaWYiIGZvbnQtc2l6ZT0iMTQiIGxlbmd0aEFkanVzdD0ic3BhY2luZyIgdGV4dExlbmd0aD0iMTUxIiB4PSIyNjMiIHk9IjM0NC42ODc1Ij5qb2luQ29tbXVuaXR5KCk6IHZvaWQ8L3RleHQ+PC9nPjwhLS1jbGFzcyBCYWRnZS0tPjxnIGlkPSJlbGVtX0JhZGdlIj48cmVjdCBjb2RlTGluZT0iNjMiIGZpbGw9IiNGMUYxRjEiIGhlaWdodD0iMTA3LjkzNzUiIGlkPSJCYWRnZSIgcng9IjIuNSIgcnk9IjIuNSIgc3R5bGU9InN0cm9rZTojMTgxODE4O3N0cm9rZS13aWR0aDowLjU7IiB3aWR0aD0iMTYxIiB4PSIxNTk0IiB5PSIzNyIvPjxlbGxpcHNlIGN4PSIxNjUyLjc1IiBjeT0iNTMiIGZpbGw9IiNBREQxQjIiIHJ4PSIxMSIgcnk9IjExIiBzdHlsZT0ic3Ryb2tlOiMxODE4MTg7c3Ryb2tlLXdpZHRoOjEuMDsiLz48cGF0aCBkPSJNMTY1MC4zNzUsNTcuMjUgTDE2NTAuMzc1LDU5IEwxNjU1LjMxMjUsNTkgTDE2NTUuMzEyNSw1Ny4yNSBMMTY1MC4zNzUsNTcuMjUgWiBNMTY1MS4wNjI1LDU3LjkzNzUgUTE2NTEuMDYyNSw1Ny45Mzc1IDE2NTEuMDYyNSw0OC43NSBMMTY0OS4zMTI1LDQ4Ljc1IFExNjQ5LjMxMjUsNDguNzUgMTY0OS4zMTI1LDU3LjkzNzUgTDE2NTEuMDYyNSw1Ny45Mzc1IFogTTE2NTQuNjI1LDU3LjkzNzUgTDE2NTYuMzc1LDU3LjkzNzUgUTE2NTYuMzc1LDU3LjkzNzUgMTY1Ni4zNzUsNTUuMTI1IEwxNjU0LjYyNSw1NS4xMjUgUTE2NTQuNjI1LDU1LjEyNSAxNjU0LjYyNSw1Ny45Mzc1IFogTTE2NTQuNjI1LDQ4Ljc1IFExNjU0LjYyNSw0OC43NSAxNjU0LjYyNSw1MS41NjI1IEwxNjU2LjM3NSw1MS41NjI1IFExNjU2LjM3NSw1MS41NjI1IDE2NTYuMzc1LDQ4Ljc1IEwxNjU0LjYyNSw0OC43NSBaIE0xNjUwLjM3NSw0OS40Mzc1IEwxNjU1LjMxMjUsNDkuNDM3NSBMMTY1NS4zMTI1LDQ3LjY4NzUgTDE2NTAuMzc1LDQ3LjY4NzUgTDE2NTAuMzc1LDQ5LjQzNzUgWiAiIGZpbGw9IiMwMDAwMDAiLz48dGV4dCBmaWxsPSIjMDAwMDAwIiBmb250LWZhbWlseT0ic2Fucy1zZXJpZiIgZm9udC1zaXplPSIxNCIgbGVuZ3RoQWRqdXN0PSJzcGFjaW5nIiB0ZXh0TGVuZ3RoPSIzNSIgeD0iMTY3My4yNSIgeT0iNTguNzQyMiI+QmFkZ2U8L3RleHQ+PGxpbmUgc3R5bGU9InN0cm9rZTojMTgxODE4O3N0cm9rZS13aWR0aDowLjU7IiB4MT0iMTU5NSIgeDI9IjE3NTQiIHkxPSI2OSIgeTI9IjY5Ii8+PGVsbGlwc2UgY3g9IjE2MDUiIGN5PSI4MS45OTIyIiBmaWxsPSJub25lIiByeD0iMyIgcnk9IjMiIHN0eWxlPSJzdHJva2U6IzAzODA0ODtzdHJva2Utd2lkdGg6MS4wOyIvPjx0ZXh0IGZpbGw9IiMwMDAwMDAiIGZvbnQtZmFtaWx5PSJzYW5zLXNlcmlmIiBmb250LXNpemU9IjE0IiBsZW5ndGhBZGp1c3Q9InNwYWNpbmciIHRleHRMZW5ndGg9Ijg0IiB4PSIxNjE0IiB5PSI4Ni4yMzQ0Ij5CYWRnZUlEOiBpbnQ8L3RleHQ+PGVsbGlwc2UgY3g9IjE2MDUiIGN5PSI5Ni45NzY2IiBmaWxsPSJub25lIiByeD0iMyIgcnk9IjMiIHN0eWxlPSJzdHJva2U6IzAzODA0ODtzdHJva2Utd2lkdGg6MS4wOyIvPjx0ZXh0IGZpbGw9IiMwMDAwMDAiIGZvbnQtZmFtaWx5PSJzYW5zLXNlcmlmIiBmb250LXNpemU9IjE0IiBsZW5ndGhBZGp1c3Q9InNwYWNpbmciIHRleHRMZW5ndGg9Ijg1IiB4PSIxNjE0IiB5PSIxMDEuMjE4OCI+TmFtZTogU3RyaW5nPC90ZXh0PjxlbGxpcHNlIGN4PSIxNjA1IiBjeT0iMTExLjk2MDkiIGZpbGw9Im5vbmUiIHJ4PSIzIiByeT0iMyIgc3R5bGU9InN0cm9rZTojMDM4MDQ4O3N0cm9rZS13aWR0aDoxLjA7Ii8+PHRleHQgZmlsbD0iIzAwMDAwMCIgZm9udC1mYW1pbHk9InNhbnMtc2VyaWYiIGZvbnQtc2l6ZT0iMTQiIGxlbmd0aEFkanVzdD0ic3BhY2luZyIgdGV4dExlbmd0aD0iMTMzIiB4PSIxNjE0IiB5PSIxMTYuMjAzMSI+RGVzY3JpcHRpb246IFN0cmluZzwvdGV4dD48bGluZSBzdHlsZT0ic3Ryb2tlOiMxODE4MTg7c3Ryb2tlLXdpZHRoOjAuNTsiIHgxPSIxNTk1IiB4Mj0iMTc1NCIgeTE9IjEyMS45NTMxIiB5Mj0iMTIxLjk1MzEiLz48ZWxsaXBzZSBjeD0iMTYwNSIgY3k9IjEzNC45NDUzIiBmaWxsPSIjODRCRTg0IiByeD0iMyIgcnk9IjMiIHN0eWxlPSJzdHJva2U6IzAzODA0ODtzdHJva2Utd2lkdGg6MS4wOyIvPjx0ZXh0IGZpbGw9IiMwMDAwMDAiIGZvbnQtZmFtaWx5PSJzYW5zLXNlcmlmIiBmb250LXNpemU9IjE0IiBsZW5ndGhBZGp1c3Q9InNwYWNpbmciIHRleHRMZW5ndGg9IjEzNSIgeD0iMTYxNCIgeT0iMTM5LjE4NzUiPmNyZWF0ZUJhZGdlKCk6IHZvaWQ8L3RleHQ+PC9nPjwhLS1jbGFzcyBVc2VyQmFkZ2UtLT48ZyBpZD0iZWxlbV9Vc2VyQmFkZ2UiPjxyZWN0IGNvZGVMaW5lPSI3MCIgZmlsbD0iI0YxRjFGMSIgaGVpZ2h0PSI3Ny45Njg4IiBpZD0iVXNlckJhZGdlIiByeD0iMi41IiByeT0iMi41IiBzdHlsZT0ic3Ryb2tlOiMxODE4MTg7c3Ryb2tlLXdpZHRoOjAuNTsiIHdpZHRoPSIxNjciIHg9IjE1OTEiIHk9IjI1Ny41Ii8+PGVsbGlwc2UgY3g9IjE2MzguNzUiIGN5PSIyNzMuNSIgZmlsbD0iI0FERDFCMiIgcng9IjExIiByeT0iMTEiIHN0eWxlPSJzdHJva2U6IzE4MTgxODtzdHJva2Utd2lkdGg6MS4wOyIvPjxwYXRoIGQ9Ik0xNjM2LjM3NSwyNzcuNzUgTDE2MzYuMzc1LDI3OS41IEwxNjQxLjMxMjUsMjc5LjUgTDE2NDEuMzEyNSwyNzcuNzUgTDE2MzYuMzc1LDI3Ny43NSBaIE0xNjM3LjA2MjUsMjc4LjQzNzUgUTE2MzcuMDYyNSwyNzguNDM3NSAxNjM3LjA2MjUsMjY5LjI1IEwxNjM1LjMxMjUsMjY5LjI1IFExNjM1LjMxMjUsMjY5LjI1IDE2MzUuMzEyNSwyNzguNDM3NSBMMTYzNy4wNjI1LDI3OC40Mzc1IFogTTE2NDAuNjI1LDI3OC40Mzc1IEwxNjQyLjM3NSwyNzguNDM3NSBRMTY0Mi4zNzUsMjc4LjQzNzUgMTY0Mi4zNzUsMjc1LjYyNSBMMTY0MC42MjUsMjc1LjYyNSBRMTY0MC42MjUsMjc1LjYyNSAxNjQwLjYyNSwyNzguNDM3NSBaIE0xNjQwLjYyNSwyNjkuMjUgUTE2NDAuNjI1LDI2OS4yNSAxNjQwLjYyNSwyNzIuMDYyNSBMMTY0Mi4zNzUsMjcyLjA2MjUgUTE2NDIuMzc1LDI3Mi4wNjI1IDE2NDIuMzc1LDI2OS4yNSBMMTY0MC42MjUsMjY5LjI1IFogTTE2MzYuMzc1LDI2OS45Mzc1IEwxNjQxLjMxMjUsMjY5LjkzNzUgTDE2NDEuMzEyNSwyNjguMTg3NSBMMTYzNi4zNzUsMjY4LjE4NzUgTDE2MzYuMzc1LDI2OS45Mzc1IFogIiBmaWxsPSIjMDAwMDAwIi8+PHRleHQgZmlsbD0iIzAwMDAwMCIgZm9udC1mYW1pbHk9InNhbnMtc2VyaWYiIGZvbnQtc2l6ZT0iMTQiIGxlbmd0aEFkanVzdD0ic3BhY2luZyIgdGV4dExlbmd0aD0iNjMiIHg9IjE2NTkuMjUiIHk9IjI3OS4yNDIyIj5Vc2VyQmFkZ2U8L3RleHQ+PGxpbmUgc3R5bGU9InN0cm9rZTojMTgxODE4O3N0cm9rZS13aWR0aDowLjU7IiB4MT0iMTU5MiIgeDI9IjE3NTciIHkxPSIyODkuNSIgeTI9IjI4OS41Ii8+PGVsbGlwc2UgY3g9IjE2MDIiIGN5PSIzMDIuNDkyMiIgZmlsbD0ibm9uZSIgcng9IjMiIHJ5PSIzIiBzdHlsZT0ic3Ryb2tlOiMwMzgwNDg7c3Ryb2tlLXdpZHRoOjEuMDsiLz48dGV4dCBmaWxsPSIjMDAwMDAwIiBmb250LWZhbWlseT0ic2Fucy1zZXJpZiIgZm9udC1zaXplPSIxNCIgbGVuZ3RoQWRqdXN0PSJzcGFjaW5nIiB0ZXh0TGVuZ3RoPSIxNDEiIHg9IjE2MTEiIHk9IjMwNi43MzQ0Ij5FYXJuZWREYXRlOiBEYXRlVGltZTwvdGV4dD48bGluZSBzdHlsZT0ic3Ryb2tlOiMxODE4MTg7c3Ryb2tlLXdpZHRoOjAuNTsiIHgxPSIxNTkyIiB4Mj0iMTc1NyIgeTE9IjMxMi40ODQ0IiB5Mj0iMzEyLjQ4NDQiLz48ZWxsaXBzZSBjeD0iMTYwMiIgY3k9IjMyNS40NzY2IiBmaWxsPSIjODRCRTg0IiByeD0iMyIgcnk9IjMiIHN0eWxlPSJzdHJva2U6IzAzODA0ODtzdHJva2Utd2lkdGg6MS4wOyIvPjx0ZXh0IGZpbGw9IiMwMDAwMDAiIGZvbnQtZmFtaWx5PSJzYW5zLXNlcmlmIiBmb250LXNpemU9IjE0IiBsZW5ndGhBZGp1c3Q9InNwYWNpbmciIHRleHRMZW5ndGg9IjEyOSIgeD0iMTYxMSIgeT0iMzI5LjcxODgiPmF3YXJkQmFkZ2UoKTogdm9pZDwvdGV4dD48L2c+PCEtLWNsYXNzIE5vdGlmaWNhdGlvbi0tPjxnIGlkPSJlbGVtX05vdGlmaWNhdGlvbiI+PHJlY3QgY29kZUxpbmU9Ijc1IiBmaWxsPSIjRjFGMUYxIiBoZWlnaHQ9IjEwNy45Mzc1IiBpZD0iTm90aWZpY2F0aW9uIiByeD0iMi41IiByeT0iMi41IiBzdHlsZT0ic3Ryb2tlOiMxODE4MTg7c3Ryb2tlLXdpZHRoOjAuNTsiIHdpZHRoPSIxNTkiIHg9IjExNDMiIHk9IjI0Mi41Ii8+PGVsbGlwc2UgY3g9IjExNzcuMzUiIGN5PSIyNTguNSIgZmlsbD0iI0FERDFCMiIgcng9IjExIiByeT0iMTEiIHN0eWxlPSJzdHJva2U6IzE4MTgxODtzdHJva2Utd2lkdGg6MS4wOyIvPjxwYXRoIGQ9Ik0xMTc0Ljk3NSwyNjIuNzUgTDExNzQuOTc1LDI2NC41IEwxMTc5LjkxMjUsMjY0LjUgTDExNzkuOTEyNSwyNjIuNzUgTDExNzQuOTc1LDI2Mi43NSBaIE0xMTc1LjY2MjUsMjYzLjQzNzUgUTExNzUuNjYyNSwyNjMuNDM3NSAxMTc1LjY2MjUsMjU0LjI1IEwxMTczLjkxMjUsMjU0LjI1IFExMTczLjkxMjUsMjU0LjI1IDExNzMuOTEyNSwyNjMuNDM3NSBMMTE3NS42NjI1LDI2My40Mzc1IFogTTExNzkuMjI1LDI2My40Mzc1IEwxMTgwLjk3NSwyNjMuNDM3NSBRMTE4MC45NzUsMjYzLjQzNzUgMTE4MC45NzUsMjYwLjYyNSBMMTE3OS4yMjUsMjYwLjYyNSBRMTE3OS4yMjUsMjYwLjYyNSAxMTc5LjIyNSwyNjMuNDM3NSBaIE0xMTc5LjIyNSwyNTQuMjUgUTExNzkuMjI1LDI1NC4yNSAxMTc5LjIyNSwyNTcuMDYyNSBMMTE4MC45NzUsMjU3LjA2MjUgUTExODAuOTc1LDI1Ny4wNjI1IDExODAuOTc1LDI1NC4yNSBMMTE3OS4yMjUsMjU0LjI1IFogTTExNzQuOTc1LDI1NC45Mzc1IEwxMTc5LjkxMjUsMjU0LjkzNzUgTDExNzkuOTEyNSwyNTMuMTg3NSBMMTE3NC45NzUsMjUzLjE4NzUgTDExNzQuOTc1LDI1NC45Mzc1IFogIiBmaWxsPSIjMDAwMDAwIi8+PHRleHQgZmlsbD0iIzAwMDAwMCIgZm9udC1mYW1pbHk9InNhbnMtc2VyaWYiIGZvbnQtc2l6ZT0iMTQiIGxlbmd0aEFkanVzdD0ic3BhY2luZyIgdGV4dExlbmd0aD0iODQiIHg9IjExOTUuNjUiIHk9IjI2NC4yNDIyIj5Ob3RpZmljYXRpb248L3RleHQ+PGxpbmUgc3R5bGU9InN0cm9rZTojMTgxODE4O3N0cm9rZS13aWR0aDowLjU7IiB4MT0iMTE0NCIgeDI9IjEzMDEiIHkxPSIyNzQuNSIgeTI9IjI3NC41Ii8+PGVsbGlwc2UgY3g9IjExNTQiIGN5PSIyODcuNDkyMiIgZmlsbD0ibm9uZSIgcng9IjMiIHJ5PSIzIiBzdHlsZT0ic3Ryb2tlOiMwMzgwNDg7c3Ryb2tlLXdpZHRoOjEuMDsiLz48dGV4dCBmaWxsPSIjMDAwMDAwIiBmb250LWZhbWlseT0ic2Fucy1zZXJpZiIgZm9udC1zaXplPSIxNCIgbGVuZ3RoQWRqdXN0PSJzcGFjaW5nIiB0ZXh0TGVuZ3RoPSIxMzMiIHg9IjExNjMiIHk9IjI5MS43MzQ0Ij5Ob3RpZmljYXRpb25JRDogaW50PC90ZXh0PjxlbGxpcHNlIGN4PSIxMTU0IiBjeT0iMzAyLjQ3NjYiIGZpbGw9Im5vbmUiIHJ4PSIzIiByeT0iMyIgc3R5bGU9InN0cm9rZTojMDM4MDQ4O3N0cm9rZS13aWR0aDoxLjA7Ii8+PHRleHQgZmlsbD0iIzAwMDAwMCIgZm9udC1mYW1pbHk9InNhbnMtc2VyaWYiIGZvbnQtc2l6ZT0iMTQiIGxlbmd0aEFkanVzdD0ic3BhY2luZyIgdGV4dExlbmd0aD0iMTA1IiB4PSIxMTYzIiB5PSIzMDYuNzE4OCI+TWVzc2FnZTogU3RyaW5nPC90ZXh0PjxlbGxpcHNlIGN4PSIxMTU0IiBjeT0iMzE3LjQ2MDkiIGZpbGw9Im5vbmUiIHJ4PSIzIiByeT0iMyIgc3R5bGU9InN0cm9rZTojMDM4MDQ4O3N0cm9rZS13aWR0aDoxLjA7Ii8+PHRleHQgZmlsbD0iIzAwMDAwMCIgZm9udC1mYW1pbHk9InNhbnMtc2VyaWYiIGZvbnQtc2l6ZT0iMTQiIGxlbmd0aEFkanVzdD0ic3BhY2luZyIgdGV4dExlbmd0aD0iMTA1IiB4PSIxMTYzIiB5PSIzMjEuNzAzMSI+SXNSZWFkOiBCb29sZWFuPC90ZXh0PjxsaW5lIHN0eWxlPSJzdHJva2U6IzE4MTgxODtzdHJva2Utd2lkdGg6MC41OyIgeDE9IjExNDQiIHgyPSIxMzAxIiB5MT0iMzI3LjQ1MzEiIHkyPSIzMjcuNDUzMSIvPjxlbGxpcHNlIGN4PSIxMTU0IiBjeT0iMzQwLjQ0NTMiIGZpbGw9IiM4NEJFODQiIHJ4PSIzIiByeT0iMyIgc3R5bGU9InN0cm9rZTojMDM4MDQ4O3N0cm9rZS13aWR0aDoxLjA7Ii8+PHRleHQgZmlsbD0iIzAwMDAwMCIgZm9udC1mYW1pbHk9InNhbnMtc2VyaWYiIGZvbnQtc2l6ZT0iMTQiIGxlbmd0aEFkanVzdD0ic3BhY2luZyIgdGV4dExlbmd0aD0iMTI4IiB4PSIxMTYzIiB5PSIzNDQuNjg3NSI+bm90aWZ5VXNlcigpOiB2b2lkPC90ZXh0PjwvZz48IS0tY2xhc3MgQ2VydGlmaWNhdGUtLT48ZyBpZD0iZWxlbV9DZXJ0aWZpY2F0ZSI+PHJlY3QgY29kZUxpbmU9IjgyIiBmaWxsPSIjRjFGMUYxIiBoZWlnaHQ9IjEwNy45Mzc1IiBpZD0iQ2VydGlmaWNhdGUiIHJ4PSIyLjUiIHJ5PSIyLjUiIHN0eWxlPSJzdHJva2U6IzE4MTgxODtzdHJva2Utd2lkdGg6MC41OyIgd2lkdGg9IjIxOCIgeD0iMTMzNy41IiB5PSIyNDIuNSIvPjxlbGxpcHNlIGN4PSIxNDAzLjc1IiBjeT0iMjU4LjUiIGZpbGw9IiNBREQxQjIiIHJ4PSIxMSIgcnk9IjExIiBzdHlsZT0ic3Ryb2tlOiMxODE4MTg7c3Ryb2tlLXdpZHRoOjEuMDsiLz48cGF0aCBkPSJNMTQwMS4zNzUsMjYyLjc1IEwxNDAxLjM3NSwyNjQuNSBMMTQwNi4zMTI1LDI2NC41IEwxNDA2LjMxMjUsMjYyLjc1IEwxNDAxLjM3NSwyNjIuNzUgWiBNMTQwMi4wNjI1LDI2My40Mzc1IFExNDAyLjA2MjUsMjYzLjQzNzUgMTQwMi4wNjI1LDI1NC4yNSBMMTQwMC4zMTI1LDI1NC4yNSBRMTQwMC4zMTI1LDI1NC4yNSAxNDAwLjMxMjUsMjYzLjQzNzUgTDE0MDIuMDYyNSwyNjMuNDM3NSBaIE0xNDA1LjYyNSwyNjMuNDM3NSBMMTQwNy4zNzUsMjYzLjQzNzUgUTE0MDcuMzc1LDI2My40Mzc1IDE0MDcuMzc1LDI2MC42MjUgTDE0MDUuNjI1LDI2MC42MjUgUTE0MDUuNjI1LDI2MC42MjUgMTQwNS42MjUsMjYzLjQzNzUgWiBNMTQwNS42MjUsMjU0LjI1IFExNDA1LjYyNSwyNTQuMjUgMTQwNS42MjUsMjU3LjA2MjUgTDE0MDcuMzc1LDI1Ny4wNjI1IFExNDA3LjM3NSwyNTcuMDYyNSAxNDA3LjM3NSwyNTQuMjUgTDE0MDUuNjI1LDI1NC4yNSBaIE0xNDAxLjM3NSwyNTQuOTM3NSBMMTQwNi4zMTI1LDI1NC45Mzc1IEwxNDA2LjMxMjUsMjUzLjE4NzUgTDE0MDEuMzc1LDI1My4xODc1IEwxNDAxLjM3NSwyNTQuOTM3NSBaICIgZmlsbD0iIzAwMDAwMCIvPjx0ZXh0IGZpbGw9IiMwMDAwMDAiIGZvbnQtZmFtaWx5PSJzYW5zLXNlcmlmIiBmb250LXNpemU9IjE0IiBsZW5ndGhBZGp1c3Q9InNwYWNpbmciIHRleHRMZW5ndGg9Ijc3IiB4PSIxNDI0LjI1IiB5PSIyNjQuMjQyMiI+Q2VydGlmaWNhdGU8L3RleHQ+PGxpbmUgc3R5bGU9InN0cm9rZTojMTgxODE4O3N0cm9rZS13aWR0aDowLjU7IiB4MT0iMTMzOC41IiB4Mj0iMTU1NC41IiB5MT0iMjc0LjUiIHkyPSIyNzQuNSIvPjxlbGxpcHNlIGN4PSIxMzQ4LjUiIGN5PSIyODcuNDkyMiIgZmlsbD0ibm9uZSIgcng9IjMiIHJ5PSIzIiBzdHlsZT0ic3Ryb2tlOiMwMzgwNDg7c3Ryb2tlLXdpZHRoOjEuMDsiLz48dGV4dCBmaWxsPSIjMDAwMDAwIiBmb250LWZhbWlseT0ic2Fucy1zZXJpZiIgZm9udC1zaXplPSIxNCIgbGVuZ3RoQWRqdXN0PSJzcGFjaW5nIiB0ZXh0TGVuZ3RoPSIxMjYiIHg9IjEzNTcuNSIgeT0iMjkxLjczNDQiPkNlcnRpZmljYXRlSUQ6IGludDwvdGV4dD48ZWxsaXBzZSBjeD0iMTM0OC41IiBjeT0iMzAyLjQ3NjYiIGZpbGw9Im5vbmUiIHJ4PSIzIiByeT0iMyIgc3R5bGU9InN0cm9rZTojMDM4MDQ4O3N0cm9rZS13aWR0aDoxLjA7Ii8+PHRleHQgZmlsbD0iIzAwMDAwMCIgZm9udC1mYW1pbHk9InNhbnMtc2VyaWYiIGZvbnQtc2l6ZT0iMTQiIGxlbmd0aEFkanVzdD0ic3BhY2luZyIgdGV4dExlbmd0aD0iOTEiIHg9IjEzNTcuNSIgeT0iMzA2LjcxODgiPlRpdGxlOiBTdHJpbmc8L3RleHQ+PGVsbGlwc2UgY3g9IjEzNDguNSIgY3k9IjMxNy40NjA5IiBmaWxsPSJub25lIiByeD0iMyIgcnk9IjMiIHN0eWxlPSJzdHJva2U6IzAzODA0ODtzdHJva2Utd2lkdGg6MS4wOyIvPjx0ZXh0IGZpbGw9IiMwMDAwMDAiIGZvbnQtZmFtaWx5PSJzYW5zLXNlcmlmIiBmb250LXNpemU9IjE0IiBsZW5ndGhBZGp1c3Q9InNwYWNpbmciIHRleHRMZW5ndGg9IjEzNCIgeD0iMTM1Ny41IiB5PSIzMjEuNzAzMSI+SXNzdWVEYXRlOiBEYXRlVGltZTwvdGV4dD48bGluZSBzdHlsZT0ic3Ryb2tlOiMxODE4MTg7c3Ryb2tlLXdpZHRoOjAuNTsiIHgxPSIxMzM4LjUiIHgyPSIxNTU0LjUiIHkxPSIzMjcuNDUzMSIgeTI9IjMyNy40NTMxIi8+PGVsbGlwc2UgY3g9IjEzNDguNSIgY3k9IjM0MC40NDUzIiBmaWxsPSIjODRCRTg0IiByeD0iMyIgcnk9IjMiIHN0eWxlPSJzdHJva2U6IzAzODA0ODtzdHJva2Utd2lkdGg6MS4wOyIvPjx0ZXh0IGZpbGw9IiMwMDAwMDAiIGZvbnQtZmFtaWx5PSJzYW5zLXNlcmlmIiBmb250LXNpemU9IjE0IiBsZW5ndGhBZGp1c3Q9InNwYWNpbmciIHRleHRMZW5ndGg9IjE5MiIgeD0iMTM1Ny41IiB5PSIzNDQuNjg3NSI+ZG93bmxvYWRDZXJ0aWZpY2F0ZSgpOiB2b2lkPC90ZXh0PjwvZz48IS0tY2xhc3MgTGVhcm5pbmdSZXNvdXJjZS0tPjxnIGlkPSJlbGVtX0xlYXJuaW5nUmVzb3VyY2UiPjxyZWN0IGNvZGVMaW5lPSI4OSIgZmlsbD0iI0YxRjFGMSIgaGVpZ2h0PSIxMjIuOTIxOSIgaWQ9IkxlYXJuaW5nUmVzb3VyY2UiIHJ4PSIyLjUiIHJ5PSIyLjUiIHN0eWxlPSJzdHJva2U6IzE4MTgxODtzdHJva2Utd2lkdGg6MC41OyIgd2lkdGg9IjE2MSIgeD0iMTAzNyIgeT0iNDE4Ii8+PGVsbGlwc2UgY3g9IjEwNTkuNjUiIGN5PSI0MzQiIGZpbGw9IiNBREQxQjIiIHJ4PSIxMSIgcnk9IjExIiBzdHlsZT0ic3Ryb2tlOiMxODE4MTg7c3Ryb2tlLXdpZHRoOjEuMDsiLz48cGF0aCBkPSJNMTA1Ny4yNzUsNDM4LjI1IEwxMDU3LjI3NSw0NDAgTDEwNjIuMjEyNSw0NDAgTDEwNjIuMjEyNSw0MzguMjUgTDEwNTcuMjc1LDQzOC4yNSBaIE0xMDU3Ljk2MjUsNDM4LjkzNzUgUTEwNTcuOTYyNSw0MzguOTM3NSAxMDU3Ljk2MjUsNDI5Ljc1IEwxMDU2LjIxMjUsNDI5Ljc1IFExMDU2LjIxMjUsNDI5Ljc1IDEwNTYuMjEyNSw0MzguOTM3NSBMMTA1Ny45NjI1LDQzOC45Mzc1IFogTTEwNjEuNTI1LDQzOC45Mzc1IEwxMDYzLjI3NSw0MzguOTM3NSBRMTA2My4yNzUsNDM4LjkzNzUgMTA2My4yNzUsNDM2LjEyNSBMMTA2MS41MjUsNDM2LjEyNSBRMTA2MS41MjUsNDM2LjEyNSAxMDYxLjUyNSw0MzguOTM3NSBaIE0xMDYxLjUyNSw0MjkuNzUgUTEwNjEuNTI1LDQyOS43NSAxMDYxLjUyNSw0MzIuNTYyNSBMMTA2My4yNzUsNDMyLjU2MjUgUTEwNjMuMjc1LDQzMi41NjI1IDEwNjMuMjc1LDQyOS43NSBMMTA2MS41MjUsNDI5Ljc1IFogTTEwNTcuMjc1LDQzMC40Mzc1IEwxMDYyLjIxMjUsNDMwLjQzNzUgTDEwNjIuMjEyNSw0MjguNjg3NSBMMTA1Ny4yNzUsNDI4LjY4NzUgTDEwNTcuMjc1LDQzMC40Mzc1IFogIiBmaWxsPSIjMDAwMDAwIi8+PHRleHQgZmlsbD0iIzAwMDAwMCIgZm9udC1mYW1pbHk9InNhbnMtc2VyaWYiIGZvbnQtc2l6ZT0iMTQiIGxlbmd0aEFkanVzdD0ic3BhY2luZyIgdGV4dExlbmd0aD0iMTEyIiB4PSIxMDc1LjM1IiB5PSI0MzkuNzQyMiI+TGVhcm5pbmdSZXNvdXJjZTwvdGV4dD48bGluZSBzdHlsZT0ic3Ryb2tlOiMxODE4MTg7c3Ryb2tlLXdpZHRoOjAuNTsiIHgxPSIxMDM4IiB4Mj0iMTE5NyIgeTE9IjQ1MCIgeTI9IjQ1MCIvPjxlbGxpcHNlIGN4PSIxMDQ4IiBjeT0iNDYyLjk5MjIiIGZpbGw9Im5vbmUiIHJ4PSIzIiByeT0iMyIgc3R5bGU9InN0cm9rZTojMDM4MDQ4O3N0cm9rZS13aWR0aDoxLjA7Ii8+PHRleHQgZmlsbD0iIzAwMDAwMCIgZm9udC1mYW1pbHk9InNhbnMtc2VyaWYiIGZvbnQtc2l6ZT0iMTQiIGxlbmd0aEFkanVzdD0ic3BhY2luZyIgdGV4dExlbmd0aD0iMTA1IiB4PSIxMDU3IiB5PSI0NjcuMjM0NCI+UmVzb3VyY2VJRDogaW50PC90ZXh0PjxlbGxpcHNlIGN4PSIxMDQ4IiBjeT0iNDc3Ljk3NjYiIGZpbGw9Im5vbmUiIHJ4PSIzIiByeT0iMyIgc3R5bGU9InN0cm9rZTojMDM4MDQ4O3N0cm9rZS13aWR0aDoxLjA7Ii8+PHRleHQgZmlsbD0iIzAwMDAwMCIgZm9udC1mYW1pbHk9InNhbnMtc2VyaWYiIGZvbnQtc2l6ZT0iMTQiIGxlbmd0aEFkanVzdD0ic3BhY2luZyIgdGV4dExlbmd0aD0iOTEiIHg9IjEwNTciIHk9IjQ4Mi4yMTg4Ij5UaXRsZTogU3RyaW5nPC90ZXh0PjxlbGxpcHNlIGN4PSIxMDQ4IiBjeT0iNDkyLjk2MDkiIGZpbGw9Im5vbmUiIHJ4PSIzIiByeT0iMyIgc3R5bGU9InN0cm9rZTojMDM4MDQ4O3N0cm9rZS13aWR0aDoxLjA7Ii8+PHRleHQgZmlsbD0iIzAwMDAwMCIgZm9udC1mYW1pbHk9InNhbnMtc2VyaWYiIGZvbnQtc2l6ZT0iMTQiIGxlbmd0aEFkanVzdD0ic3BhY2luZyIgdGV4dExlbmd0aD0iNzciIHg9IjEwNTciIHk9IjQ5Ny4yMDMxIj5VUkw6IFN0cmluZzwvdGV4dD48ZWxsaXBzZSBjeD0iMTA0OCIgY3k9IjUwNy45NDUzIiBmaWxsPSJub25lIiByeD0iMyIgcnk9IjMiIHN0eWxlPSJzdHJva2U6IzAzODA0ODtzdHJva2Utd2lkdGg6MS4wOyIvPjx0ZXh0IGZpbGw9IiMwMDAwMDAiIGZvbnQtZmFtaWx5PSJzYW5zLXNlcmlmIiBmb250LXNpemU9IjE0IiBsZW5ndGhBZGp1c3Q9InNwYWNpbmciIHRleHRMZW5ndGg9IjEzMyIgeD0iMTA1NyIgeT0iNTEyLjE4NzUiPkRlc2NyaXB0aW9uOiBTdHJpbmc8L3RleHQ+PGxpbmUgc3R5bGU9InN0cm9rZTojMTgxODE4O3N0cm9rZS13aWR0aDowLjU7IiB4MT0iMTAzOCIgeDI9IjExOTciIHkxPSI1MTcuOTM3NSIgeTI9IjUxNy45Mzc1Ii8+PGVsbGlwc2UgY3g9IjEwNDgiIGN5PSI1MzAuOTI5NyIgZmlsbD0iIzg0QkU4NCIgcng9IjMiIHJ5PSIzIiBzdHlsZT0ic3Ryb2tlOiMwMzgwNDg7c3Ryb2tlLXdpZHRoOjEuMDsiLz48dGV4dCBmaWxsPSIjMDAwMDAwIiBmb250LWZhbWlseT0ic2Fucy1zZXJpZiIgZm9udC1zaXplPSIxNCIgbGVuZ3RoQWRqdXN0PSJzcGFjaW5nIiB0ZXh0TGVuZ3RoPSIxMzUiIHg9IjEwNTciIHk9IjUzNS4xNzE5Ij5hZGRSZXNvdXJjZSgpOiB2b2lkPC90ZXh0PjwvZz48IS0tY2xhc3MgTWVudG9yc2hpcC0tPjxnIGlkPSJlbGVtX01lbnRvcnNoaXAiPjxyZWN0IGNvZGVMaW5lPSI5NyIgZmlsbD0iI0YxRjFGMSIgaGVpZ2h0PSIxMDcuOTM3NSIgaWQ9Ik1lbnRvcnNoaXAiIHJ4PSIyLjUiIHJ5PSIyLjUiIHN0eWxlPSJzdHJva2U6IzE4MTgxODtzdHJva2Utd2lkdGg6MC41OyIgd2lkdGg9IjE4OSIgeD0iNDU1IiB5PSIyNDIuNSIvPjxlbGxpcHNlIGN4PSI1MTAuMjUiIGN5PSIyNTguNSIgZmlsbD0iI0FERDFCMiIgcng9IjExIiByeT0iMTEiIHN0eWxlPSJzdHJva2U6IzE4MTgxODtzdHJva2Utd2lkdGg6MS4wOyIvPjxwYXRoIGQ9Ik01MDcuODc1LDI2Mi43NSBMNTA3Ljg3NSwyNjQuNSBMNTEyLjgxMjUsMjY0LjUgTDUxMi44MTI1LDI2Mi43NSBMNTA3Ljg3NSwyNjIuNzUgWiBNNTA4LjU2MjUsMjYzLjQzNzUgUTUwOC41NjI1LDI2My40Mzc1IDUwOC41NjI1LDI1NC4yNSBMNTA2LjgxMjUsMjU0LjI1IFE1MDYuODEyNSwyNTQuMjUgNTA2LjgxMjUsMjYzLjQzNzUgTDUwOC41NjI1LDI2My40Mzc1IFogTTUxMi4xMjUsMjYzLjQzNzUgTDUxMy44NzUsMjYzLjQzNzUgUTUxMy44NzUsMjYzLjQzNzUgNTEzLjg3NSwyNjAuNjI1IEw1MTIuMTI1LDI2MC42MjUgUTUxMi4xMjUsMjYwLjYyNSA1MTIuMTI1LDI2My40Mzc1IFogTTUxMi4xMjUsMjU0LjI1IFE1MTIuMTI1LDI1NC4yNSA1MTIuMTI1LDI1Ny4wNjI1IEw1MTMuODc1LDI1Ny4wNjI1IFE1MTMuODc1LDI1Ny4wNjI1IDUxMy44NzUsMjU0LjI1IEw1MTIuMTI1LDI1NC4yNSBaIE01MDcuODc1LDI1NC45Mzc1IEw1MTIuODEyNSwyNTQuOTM3NSBMNTEyLjgxMjUsMjUzLjE4NzUgTDUwNy44NzUsMjUzLjE4NzUgTDUwNy44NzUsMjU0LjkzNzUgWiAiIGZpbGw9IiMwMDAwMDAiLz48dGV4dCBmaWxsPSIjMDAwMDAwIiBmb250LWZhbWlseT0ic2Fucy1zZXJpZiIgZm9udC1zaXplPSIxNCIgbGVuZ3RoQWRqdXN0PSJzcGFjaW5nIiB0ZXh0TGVuZ3RoPSI3MCIgeD0iNTMwLjc1IiB5PSIyNjQuMjQyMiI+TWVudG9yc2hpcDwvdGV4dD48bGluZSBzdHlsZT0ic3Ryb2tlOiMxODE4MTg7c3Ryb2tlLXdpZHRoOjAuNTsiIHgxPSI0NTYiIHgyPSI2NDMiIHkxPSIyNzQuNSIgeTI9IjI3NC41Ii8+PGVsbGlwc2UgY3g9IjQ2NiIgY3k9IjI4Ny40OTIyIiBmaWxsPSJub25lIiByeD0iMyIgcnk9IjMiIHN0eWxlPSJzdHJva2U6IzAzODA0ODtzdHJva2Utd2lkdGg6MS4wOyIvPjx0ZXh0IGZpbGw9IiMwMDAwMDAiIGZvbnQtZmFtaWx5PSJzYW5zLXNlcmlmIiBmb250LXNpemU9IjE0IiBsZW5ndGhBZGp1c3Q9InNwYWNpbmciIHRleHRMZW5ndGg9IjExOSIgeD0iNDc1IiB5PSIyOTEuNzM0NCI+TWVudG9yc2hpcElEOiBpbnQ8L3RleHQ+PGVsbGlwc2UgY3g9IjQ2NiIgY3k9IjMwMi40NzY2IiBmaWxsPSJub25lIiByeD0iMyIgcnk9IjMiIHN0eWxlPSJzdHJva2U6IzAzODA0ODtzdHJva2Utd2lkdGg6MS4wOyIvPjx0ZXh0IGZpbGw9IiMwMDAwMDAiIGZvbnQtZmFtaWx5PSJzYW5zLXNlcmlmIiBmb250LXNpemU9IjE0IiBsZW5ndGhBZGp1c3Q9InNwYWNpbmciIHRleHRMZW5ndGg9Ijk4IiB4PSI0NzUiIHk9IjMwNi43MTg4Ij5TdGF0dXM6IFN0cmluZzwvdGV4dD48ZWxsaXBzZSBjeD0iNDY2IiBjeT0iMzE3LjQ2MDkiIGZpbGw9Im5vbmUiIHJ4PSIzIiByeT0iMyIgc3R5bGU9InN0cm9rZTojMDM4MDQ4O3N0cm9rZS13aWR0aDoxLjA7Ii8+PHRleHQgZmlsbD0iIzAwMDAwMCIgZm9udC1mYW1pbHk9InNhbnMtc2VyaWYiIGZvbnQtc2l6ZT0iMTQiIGxlbmd0aEFkanVzdD0ic3BhY2luZyIgdGV4dExlbmd0aD0iMTM0IiB4PSI0NzUiIHk9IjMyMS43MDMxIj5TdGFydERhdGU6IERhdGVUaW1lPC90ZXh0PjxsaW5lIHN0eWxlPSJzdHJva2U6IzE4MTgxODtzdHJva2Utd2lkdGg6MC41OyIgeDE9IjQ1NiIgeDI9IjY0MyIgeTE9IjMyNy40NTMxIiB5Mj0iMzI3LjQ1MzEiLz48ZWxsaXBzZSBjeD0iNDY2IiBjeT0iMzQwLjQ0NTMiIGZpbGw9IiM4NEJFODQiIHJ4PSIzIiByeT0iMyIgc3R5bGU9InN0cm9rZTojMDM4MDQ4O3N0cm9rZS13aWR0aDoxLjA7Ii8+PHRleHQgZmlsbD0iIzAwMDAwMCIgZm9udC1mYW1pbHk9InNhbnMtc2VyaWYiIGZvbnQtc2l6ZT0iMTQiIGxlbmd0aEFkanVzdD0ic3BhY2luZyIgdGV4dExlbmd0aD0iMTYzIiB4PSI0NzUiIHk9IjM0NC42ODc1Ij5wcm92aWRlR3VpZGFuY2UoKTogdm9pZDwvdGV4dD48L2c+PCEtLWNsYXNzIEZlZWRiYWNrLS0+PGcgaWQ9ImVsZW1fRmVlZGJhY2siPjxyZWN0IGNvZGVMaW5lPSIxMDQiIGZpbGw9IiNGMUYxRjEiIGhlaWdodD0iMTIyLjkyMTkiIGlkPSJGZWVkYmFjayIgcng9IjIuNSIgcnk9IjIuNSIgc3R5bGU9InN0cm9rZTojMTgxODE4O3N0cm9rZS13aWR0aDowLjU7IiB3aWR0aD0iMTg5IiB4PSIxNzkwIiB5PSIyOS41Ii8+PGVsbGlwc2UgY3g9IjE4NTIuMjUiIGN5PSI0NS41IiBmaWxsPSIjQUREMUIyIiByeD0iMTEiIHJ5PSIxMSIgc3R5bGU9InN0cm9rZTojMTgxODE4O3N0cm9rZS13aWR0aDoxLjA7Ii8+PHBhdGggZD0iTTE4NDkuODc1LDQ5Ljc1IEwxODQ5Ljg3NSw1MS41IEwxODU0LjgxMjUsNTEuNSBMMTg1NC44MTI1LDQ5Ljc1IEwxODQ5Ljg3NSw0OS43NSBaIE0xODUwLjU2MjUsNTAuNDM3NSBRMTg1MC41NjI1LDUwLjQzNzUgMTg1MC41NjI1LDQxLjI1IEwxODQ4LjgxMjUsNDEuMjUgUTE4NDguODEyNSw0MS4yNSAxODQ4LjgxMjUsNTAuNDM3NSBMMTg1MC41NjI1LDUwLjQzNzUgWiBNMTg1NC4xMjUsNTAuNDM3NSBMMTg1NS44NzUsNTAuNDM3NSBRMTg1NS44NzUsNTAuNDM3NSAxODU1Ljg3NSw0Ny42MjUgTDE4NTQuMTI1LDQ3LjYyNSBRMTg1NC4xMjUsNDcuNjI1IDE4NTQuMTI1LDUwLjQzNzUgWiBNMTg1NC4xMjUsNDEuMjUgUTE4NTQuMTI1LDQxLjI1IDE4NTQuMTI1LDQ0LjA2MjUgTDE4NTUuODc1LDQ0LjA2MjUgUTE4NTUuODc1LDQ0LjA2MjUgMTg1NS44NzUsNDEuMjUgTDE4NTQuMTI1LDQxLjI1IFogTTE4NDkuODc1LDQxLjkzNzUgTDE4NTQuODEyNSw0MS45Mzc1IEwxODU0LjgxMjUsNDAuMTg3NSBMMTg0OS44NzUsNDAuMTg3NSBMMTg0OS44NzUsNDEuOTM3NSBaICIgZmlsbD0iIzAwMDAwMCIvPjx0ZXh0IGZpbGw9IiMwMDAwMDAiIGZvbnQtZmFtaWx5PSJzYW5zLXNlcmlmIiBmb250LXNpemU9IjE0IiBsZW5ndGhBZGp1c3Q9InNwYWNpbmciIHRleHRMZW5ndGg9IjU2IiB4PSIxODcyLjc1IiB5PSI1MS4yNDIyIj5GZWVkYmFjazwvdGV4dD48bGluZSBzdHlsZT0ic3Ryb2tlOiMxODE4MTg7c3Ryb2tlLXdpZHRoOjAuNTsiIHgxPSIxNzkxIiB4Mj0iMTk3OCIgeTE9IjYxLjUiIHkyPSI2MS41Ii8+PGVsbGlwc2UgY3g9IjE4MDEiIGN5PSI3NC40OTIyIiBmaWxsPSJub25lIiByeD0iMyIgcnk9IjMiIHN0eWxlPSJzdHJva2U6IzAzODA0ODtzdHJva2Utd2lkdGg6MS4wOyIvPjx0ZXh0IGZpbGw9IiMwMDAwMDAiIGZvbnQtZmFtaWx5PSJzYW5zLXNlcmlmIiBmb250LXNpemU9IjE0IiBsZW5ndGhBZGp1c3Q9InNwYWNpbmciIHRleHRMZW5ndGg9IjEwNSIgeD0iMTgxMCIgeT0iNzguNzM0NCI+RmVlZGJhY2tJRDogaW50PC90ZXh0PjxlbGxpcHNlIGN4PSIxODAxIiBjeT0iODkuNDc2NiIgZmlsbD0ibm9uZSIgcng9IjMiIHJ5PSIzIiBzdHlsZT0ic3Ryb2tlOiMwMzgwNDg7c3Ryb2tlLXdpZHRoOjEuMDsiLz48dGV4dCBmaWxsPSIjMDAwMDAwIiBmb250LWZhbWlseT0ic2Fucy1zZXJpZiIgZm9udC1zaXplPSIxNCIgbGVuZ3RoQWRqdXN0PSJzcGFjaW5nIiB0ZXh0TGVuZ3RoPSIxNDAiIHg9IjE4MTAiIHk9IjkzLjcxODgiPkZlZWRiYWNrVHlwZTogU3RyaW5nPC90ZXh0PjxlbGxpcHNlIGN4PSIxODAxIiBjeT0iMTA0LjQ2MDkiIGZpbGw9Im5vbmUiIHJ4PSIzIiByeT0iMyIgc3R5bGU9InN0cm9rZTojMDM4MDQ4O3N0cm9rZS13aWR0aDoxLjA7Ii8+PHRleHQgZmlsbD0iIzAwMDAwMCIgZm9udC1mYW1pbHk9InNhbnMtc2VyaWYiIGZvbnQtc2l6ZT0iMTQiIGxlbmd0aEFkanVzdD0ic3BhY2luZyIgdGV4dExlbmd0aD0iMTA1IiB4PSIxODEwIiB5PSIxMDguNzAzMSI+TWVzc2FnZTogU3RyaW5nPC90ZXh0PjxlbGxpcHNlIGN4PSIxODAxIiBjeT0iMTE5LjQ0NTMiIGZpbGw9Im5vbmUiIHJ4PSIzIiByeT0iMyIgc3R5bGU9InN0cm9rZTojMDM4MDQ4O3N0cm9rZS13aWR0aDoxLjA7Ii8+PHRleHQgZmlsbD0iIzAwMDAwMCIgZm9udC1mYW1pbHk9InNhbnMtc2VyaWYiIGZvbnQtc2l6ZT0iMTQiIGxlbmd0aEFkanVzdD0ic3BhY2luZyIgdGV4dExlbmd0aD0iMTYzIiB4PSIxODEwIiB5PSIxMjMuNjg3NSI+U3VibWl0dGVkRGF0ZTogRGF0ZVRpbWU8L3RleHQ+PGxpbmUgc3R5bGU9InN0cm9rZTojMTgxODE4O3N0cm9rZS13aWR0aDowLjU7IiB4MT0iMTc5MSIgeDI9IjE5NzgiIHkxPSIxMjkuNDM3NSIgeTI9IjEyOS40Mzc1Ii8+PGVsbGlwc2UgY3g9IjE4MDEiIGN5PSIxNDIuNDI5NyIgZmlsbD0iIzg0QkU4NCIgcng9IjMiIHJ5PSIzIiBzdHlsZT0ic3Ryb2tlOiMwMzgwNDg7c3Ryb2tlLXdpZHRoOjEuMDsiLz48dGV4dCBmaWxsPSIjMDAwMDAwIiBmb250LWZhbWlseT0ic2Fucy1zZXJpZiIgZm9udC1zaXplPSIxNCIgbGVuZ3RoQWRqdXN0PSJzcGFjaW5nIiB0ZXh0TGVuZ3RoPSIxNTciIHg9IjE4MTAiIHk9IjE0Ni42NzE5Ij5zdWJtaXRGZWVkYmFjaygpOiB2b2lkPC90ZXh0PjwvZz48IS0tbGluayBVc2VyIHRvIFVzZXJQcm9maWxlLS0+PGcgaWQ9ImxpbmtfVXNlcl9Vc2VyUHJvZmlsZSI+PHBhdGggY29kZUxpbmU9IjExMiIgZD0iTTg0OS4xNSwxNzUuMDYgQzgzNy43NSwxOTUuMDcgODI1Ljc4LDIxNi4wNyA4MTUuMDgsMjM0LjgzICIgZmlsbD0ibm9uZSIgaWQ9IlVzZXItVXNlclByb2ZpbGUiIHN0eWxlPSJzdHJva2U6IzE4MTgxODtzdHJva2Utd2lkdGg6MS4wOyIvPjx0ZXh0IGZpbGw9IiMwMDAwMDAiIGZvbnQtZmFtaWx5PSJzYW5zLXNlcmlmIiBmb250LXNpemU9IjEzIiBsZW5ndGhBZGp1c3Q9InNwYWNpbmciIHRleHRMZW5ndGg9IjciIHg9IjgzNy43ODAxIiB5PSIxOTUuMTc2MiI+MTwvdGV4dD48dGV4dCBmaWxsPSIjMDAwMDAwIiBmb250LWZhbWlseT0ic2Fucy1zZXJpZiIgZm9udC1zaXplPSIxMyIgbGVuZ3RoQWRqdXN0PSJzcGFjaW5nIiB0ZXh0TGVuZ3RoPSI3IiB4PSI4MTIuMDYyMSIgeT0iMjI1LjQ0ODMiPjE8L3RleHQ+PC9nPjwhLS1saW5rIFVzZXIgdG8gQXNzZXNzbWVudFJlc3VsdC0tPjxnIGlkPSJsaW5rX1VzZXJfQXNzZXNzbWVudFJlc3VsdCI+PHBhdGggY29kZUxpbmU9IjExMyIgZD0iTTgwMS45MSwxMDguODUgQzY0My4zMSwxMzcuNjQgMzMwLjc4LDE5Ni45MSAyMjUuNSwyMzUgQzIxOC44MiwyMzcuNDIgMjEyLjA0LDI0MC4xNiAyMDUuMjksMjQzLjEgIiBmaWxsPSJub25lIiBpZD0iVXNlci1Bc3Nlc3NtZW50UmVzdWx0IiBzdHlsZT0ic3Ryb2tlOiMxODE4MTg7c3Ryb2tlLXdpZHRoOjEuMDsiLz48dGV4dCBmaWxsPSIjMDAwMDAwIiBmb250LWZhbWlseT0ic2Fucy1zZXJpZiIgZm9udC1zaXplPSIxMyIgbGVuZ3RoQWRqdXN0PSJzcGFjaW5nIiB0ZXh0TGVuZ3RoPSI3IiB4PSI3ODcuMDkzNSIgeT0iMTA5LjA4NDkiPjE8L3RleHQ+PHRleHQgZmlsbD0iIzAwMDAwMCIgZm9udC1mYW1pbHk9InNhbnMtc2VyaWYiIGZvbnQtc2l6ZT0iMTMiIGxlbmd0aEFkanVzdD0ic3BhY2luZyIgdGV4dExlbmd0aD0iNiIgeD0iMjEzLjA4MjYiIHk9IjIzNy42NTUzIj4qPC90ZXh0PjwvZz48IS0tbGluayBVc2VyIHRvIFJvYWRtYXAtLT48ZyBpZD0ibGlua19Vc2VyX1JvYWRtYXAiPjxwYXRoIGNvZGVMaW5lPSIxMTQiIGQ9Ik05NDMuODUsMTc1LjA2IEM5NTYuODIsMTk3LjgxIDk3MC41MiwyMjEuODUgOTgyLjI1LDI0Mi40MiAiIGZpbGw9Im5vbmUiIGlkPSJVc2VyLVJvYWRtYXAiIHN0eWxlPSJzdHJva2U6IzE4MTgxODtzdHJva2Utd2lkdGg6MS4wOyIvPjx0ZXh0IGZpbGw9IiMwMDAwMDAiIGZvbnQtZmFtaWx5PSJzYW5zLXNlcmlmIiBmb250LXNpemU9IjEzIiBsZW5ndGhBZGp1c3Q9InNwYWNpbmciIHRleHRMZW5ndGg9IjciIHg9Ijk0MC42MTg0IiB5PSIxOTUuMTc2MiI+MTwvdGV4dD48dGV4dCBmaWxsPSIjMDAwMDAwIiBmb250LWZhbWlseT0ic2Fucy1zZXJpZiIgZm9udC1zaXplPSIxMyIgbGVuZ3RoQWRqdXN0PSJzcGFjaW5nIiB0ZXh0TGVuZ3RoPSI2IiB4PSI5NzEuMzY2NCIgeT0iMjMyLjg4MzEiPio8L3RleHQ+PC9nPjwhLS1saW5rIFVzZXIgdG8gQ29tbXVuaXR5TWVtYmVyLS0+PGcgaWQ9ImxpbmtfVXNlcl9Db21tdW5pdHlNZW1iZXIiPjxwYXRoIGNvZGVMaW5lPSIxMTUiIGQ9Ik04MDEuNiwxMTUuMTIgQzcwNy4yNSwxMzkuNTkgNTU5LjM4LDE4MS45OCA0MzcuNSwyMzUgQzQzMS43NywyMzcuNDkgNDI1Ljk1LDI0MC4yMiA0MjAuMTQsMjQzLjA4ICIgZmlsbD0ibm9uZSIgaWQ9IlVzZXItQ29tbXVuaXR5TWVtYmVyIiBzdHlsZT0ic3Ryb2tlOiMxODE4MTg7c3Ryb2tlLXdpZHRoOjEuMDsiLz48dGV4dCBmaWxsPSIjMDAwMDAwIiBmb250LWZhbWlseT0ic2Fucy1zZXJpZiIgZm9udC1zaXplPSIxMyIgbGVuZ3RoQWRqdXN0PSJzcGFjaW5nIiB0ZXh0TGVuZ3RoPSI3IiB4PSI3ODcuMDY2MyIgeT0iMTI5Ljc5MzIiPjE8L3RleHQ+PHRleHQgZmlsbD0iIzAwMDAwMCIgZm9udC1mYW1pbHk9InNhbnMtc2VyaWYiIGZvbnQtc2l6ZT0iMTMiIGxlbmd0aEFkanVzdD0ic3BhY2luZyIgdGV4dExlbmd0aD0iNiIgeD0iNDI4LjAxNTMiIHk9IjIzNy4yNjE2Ij4qPC90ZXh0PjwvZz48IS0tbGluayBVc2VyIHRvIE5vdGlmaWNhdGlvbi0tPjxnIGlkPSJsaW5rX1VzZXJfTm90aWZpY2F0aW9uIj48cGF0aCBjb2RlTGluZT0iMTE2IiBkPSJNOTkxLjIzLDE1MS4xMyBDMTAzOS4zNiwxODEuMTggMTA5Ny4xNywyMTcuMjcgMTE0Mi45NiwyNDUuODUgIiBmaWxsPSJub25lIiBpZD0iVXNlci1Ob3RpZmljYXRpb24iIHN0eWxlPSJzdHJva2U6IzE4MTgxODtzdHJva2Utd2lkdGg6MS4wOyIvPjx0ZXh0IGZpbGw9IiMwMDAwMDAiIGZvbnQtZmFtaWx5PSJzYW5zLXNlcmlmIiBmb250LXNpemU9IjEzIiBsZW5ndGhBZGp1c3Q9InNwYWNpbmciIHRleHRMZW5ndGg9IjciIHg9Ijk5OS4wNTc3IiB5PSIxNTQuNzM0MSI+MTwvdGV4dD48dGV4dCBmaWxsPSIjMDAwMDAwIiBmb250LWZhbWlseT0ic2Fucy1zZXJpZiIgZm9udC1zaXplPSIxMyIgbGVuZ3RoQWRqdXN0PSJzcGFjaW5nIiB0ZXh0TGVuZ3RoPSI2IiB4PSIxMTI5LjA5MjkiIHk9IjIzOS43Mzg1Ij4qPC90ZXh0PjwvZz48IS0tbGluayBVc2VyIHRvIFVzZXJCYWRnZS0tPjxnIGlkPSJsaW5rX1VzZXJfVXNlckJhZGdlIj48cGF0aCBjb2RlTGluZT0iMTE3IiBkPSJNOTkxLjAzLDEwMS45NSBDMTEyNC41NSwxMTguMjIgMTM3NC4zMSwxNTYuODQgMTU3My41LDIzNSBDMTU4OC42MywyNDAuOTQgMTYwNC4xLDI0OS4wMiAxNjE4LjI0LDI1Ny4zNCAiIGZpbGw9Im5vbmUiIGlkPSJVc2VyLVVzZXJCYWRnZSIgc3R5bGU9InN0cm9rZTojMTgxODE4O3N0cm9rZS13aWR0aDoxLjA7Ii8+PHRleHQgZmlsbD0iIzAwMDAwMCIgZm9udC1mYW1pbHk9InNhbnMtc2VyaWYiIGZvbnQtc2l6ZT0iMTMiIGxlbmd0aEFkanVzdD0ic3BhY2luZyIgdGV4dExlbmd0aD0iNyIgeD0iOTk5LjE0ODEiIHk9IjEwMS42NTA2Ij4xPC90ZXh0Pjx0ZXh0IGZpbGw9IiMwMDAwMDAiIGZvbnQtZmFtaWx5PSJzYW5zLXNlcmlmIiBmb250LXNpemU9IjEzIiBsZW5ndGhBZGp1c3Q9InNwYWNpbmciIHRleHRMZW5ndGg9IjYiIHg9IjE2MDAuOTQzNiIgeT0iMjQ4LjAxNTIiPio8L3RleHQ+PC9nPjwhLS1saW5rIFVzZXIgdG8gQ2VydGlmaWNhdGUtLT48ZyBpZD0ibGlua19Vc2VyX0NlcnRpZmljYXRlIj48cGF0aCBjb2RlTGluZT0iMTE4IiBkPSJNOTkxLjM0LDEyMC41MiBDMTA3Ny44NCwxNDcuMzYgMTIwOC42OSwxOTAuMDYgMTMxOS41LDIzNSBDMTMyNS4zOCwyMzcuMzkgMTMzMS4zOCwyMzkuOTEgMTMzNy40MSwyNDIuNTIgIiBmaWxsPSJub25lIiBpZD0iVXNlci1DZXJ0aWZpY2F0ZSIgc3R5bGU9InN0cm9rZTojMTgxODE4O3N0cm9rZS13aWR0aDoxLjA7Ii8+PHRleHQgZmlsbD0iIzAwMDAwMCIgZm9udC1mYW1pbHk9InNhbnMtc2VyaWYiIGZvbnQtc2l6ZT0iMTMiIGxlbmd0aEFkanVzdD0ic3BhY2luZyIgdGV4dExlbmd0aD0iNyIgeD0iOTk4Ljg2OTIiIHk9IjEyMS42MTEzIj4xPC90ZXh0Pjx0ZXh0IGZpbGw9IiMwMDAwMDAiIGZvbnQtZmFtaWx5PSJzYW5zLXNlcmlmIiBmb250LXNpemU9IjEzIiBsZW5ndGhBZGp1c3Q9InNwYWNpbmciIHRleHRMZW5ndGg9IjYiIHg9IjEzMjMuNTI4NyIgeT0iMjM3LjU5MDkiPio8L3RleHQ+PC9nPjwhLS1saW5rIFVzZXIgdG8gTWVudG9yc2hpcC0tPjxnIGlkPSJsaW5rX1VzZXJfTWVudG9yc2hpcCI+PHBhdGggY29kZUxpbmU9IjExOSIgZD0iTTgwMS42OCwxNDcuNjEgQzc1MS4zMSwxNzcuMTUgNjg5LjcyLDIxMy4yNyA2NDAuMDIsMjQyLjQxICIgZmlsbD0ibm9uZSIgaWQ9IlVzZXItTWVudG9yc2hpcCIgc3R5bGU9InN0cm9rZTojMTgxODE4O3N0cm9rZS13aWR0aDoxLjA7Ii8+PHRleHQgZmlsbD0iIzAwMDAwMCIgZm9udC1mYW1pbHk9InNhbnMtc2VyaWYiIGZvbnQtc2l6ZT0iMTMiIGxlbmd0aEFkanVzdD0ic3BhY2luZyIgdGV4dExlbmd0aD0iNiIgeD0iNzg3Ljg4NSIgeT0iMTUwLjkzMzYiPio8L3RleHQ+PHRleHQgZmlsbD0iIzAwMDAwMCIgZm9udC1mYW1pbHk9InNhbnMtc2VyaWYiIGZvbnQtc2l6ZT0iMTMiIGxlbmd0aEFkanVzdD0ic3BhY2luZyIgdGV4dExlbmd0aD0iNiIgeD0iNjQ2Ljg3NDUiIHk9IjIzMi44NzE2Ij4qPC90ZXh0PjwvZz48IS0tbGluayBBc3Nlc3NtZW50IHRvIEFzc2Vzc21lbnRSZXN1bHQtLT48ZyBpZD0ibGlua19Bc3Nlc3NtZW50X0Fzc2Vzc21lbnRSZXN1bHQiPjxwYXRoIGNvZGVMaW5lPSIxMjAiIGQ9Ik0xMDYuODEsMTQ1LjIgQzEwNy40OCwxNzIuNjQgMTA4LjMxLDIwNi4yMyAxMDkuMDEsMjM0LjY5ICIgZmlsbD0ibm9uZSIgaWQ9IkFzc2Vzc21lbnQtQXNzZXNzbWVudFJlc3VsdCIgc3R5bGU9InN0cm9rZTojMTgxODE4O3N0cm9rZS13aWR0aDoxLjA7Ii8+PHRleHQgZmlsbD0iIzAwMDAwMCIgZm9udC1mYW1pbHk9InNhbnMtc2VyaWYiIGZvbnQtc2l6ZT0iMTMiIGxlbmd0aEFkanVzdD0ic3BhY2luZyIgdGV4dExlbmd0aD0iNyIgeD0iOTkuNTI5NCIgeT0iMTY1LjMyODgiPjE8L3RleHQ+PHRleHQgZmlsbD0iIzAwMDAwMCIgZm9udC1mYW1pbHk9InNhbnMtc2VyaWYiIGZvbnQtc2l6ZT0iMTMiIGxlbmd0aEFkanVzdD0ic3BhY2luZyIgdGV4dExlbmd0aD0iNiIgeD0iMTAyLjQzNDciIHk9IjIyNS4yOTA0Ij4qPC90ZXh0PjwvZz48IS0tbGluayBSb2FkbWFwIHRvIFJvYWRtYXBTdGVwLS0+PGcgaWQ9ImxpbmtfUm9hZG1hcF9Sb2FkbWFwU3RlcCI+PHBhdGggY29kZUxpbmU9IjEyMSIgZD0iTTk4MS4yNywzNTAuODMgQzk2Ny41MywzNzQuMjkgOTUxLjQzLDQwMS43OSA5MzcuNjksNDI1LjI0ICIgZmlsbD0ibm9uZSIgaWQ9IlJvYWRtYXAtUm9hZG1hcFN0ZXAiIHN0eWxlPSJzdHJva2U6IzE4MTgxODtzdHJva2Utd2lkdGg6MS4wOyIvPjx0ZXh0IGZpbGw9IiMwMDAwMDAiIGZvbnQtZmFtaWx5PSJzYW5zLXNlcmlmIiBmb250LXNpemU9IjEzIiBsZW5ndGhBZGp1c3Q9InNwYWNpbmciIHRleHRMZW5ndGg9IjciIHg9Ijk3MC4wMzczIiB5PSIzNzAuNTkyMiI+MTwvdGV4dD48dGV4dCBmaWxsPSIjMDAwMDAwIiBmb250LWZhbWlseT0ic2Fucy1zZXJpZiIgZm9udC1zaXplPSIxMyIgbGVuZ3RoQWRqdXN0PSJzcGFjaW5nIiB0ZXh0TGVuZ3RoPSI2IiB4PSI5MzUuNjU0MiIgeT0iNDE2LjA1MzQiPio8L3RleHQ+PC9nPjwhLS1saW5rIFJvYWRtYXAgdG8gTGVhcm5pbmdSZXNvdXJjZS0tPjxnIGlkPSJsaW5rX1JvYWRtYXBfTGVhcm5pbmdSZXNvdXJjZSI+PHBhdGggY29kZUxpbmU9IjEyMiIgZD0iTTEwNDMuNDQsMzUwLjgzIEMxMDU1LjY2LDM3MS44OSAxMDY5Ljc2LDM5Ni4yMSAxMDgyLjM2LDQxNy45MyAiIGZpbGw9Im5vbmUiIGlkPSJSb2FkbWFwLUxlYXJuaW5nUmVzb3VyY2UiIHN0eWxlPSJzdHJva2U6IzE4MTgxODtzdHJva2Utd2lkdGg6MS4wOyIvPjx0ZXh0IGZpbGw9IiMwMDAwMDAiIGZvbnQtZmFtaWx5PSJzYW5zLXNlcmlmIiBmb250LXNpemU9IjEzIiBsZW5ndGhBZGp1c3Q9InNwYWNpbmciIHRleHRMZW5ndGg9IjYiIHg9IjEwNDAuODQ1MiIgeT0iMzcwLjU5MjIiPio8L3RleHQ+PHRleHQgZmlsbD0iIzAwMDAwMCIgZm9udC1mYW1pbHk9InNhbnMtc2VyaWYiIGZvbnQtc2l6ZT0iMTMiIGxlbmd0aEFkanVzdD0ic3BhY2luZyIgdGV4dExlbmd0aD0iNiIgeD0iMTA3MS40NzMzIiB5PSI0MDguNTYxMiI+KjwvdGV4dD48L2c+PCEtLWxpbmsgQ29tbXVuaXR5IHRvIENvbW11bml0eU1lbWJlci0tPjxnIGlkPSJsaW5rX0NvbW11bml0eV9Db21tdW5pdHlNZW1iZXIiPjxwYXRoIGNvZGVMaW5lPSIxMjMiIGQ9Ik0zMzMuNzIsMTQ1LjIgQzMzMy4yNywxNzUuMTEgMzMyLjczLDIxMi4zNCAzMzIuMjgsMjQyLjI2ICIgZmlsbD0ibm9uZSIgaWQ9IkNvbW11bml0eS1Db21tdW5pdHlNZW1iZXIiIHN0eWxlPSJzdHJva2U6IzE4MTgxODtzdHJva2Utd2lkdGg6MS4wOyIvPjx0ZXh0IGZpbGw9IiMwMDAwMDAiIGZvbnQtZmFtaWx5PSJzYW5zLXNlcmlmIiBmb250LXNpemU9IjEzIiBsZW5ndGhBZGp1c3Q9InNwYWNpbmciIHRleHRMZW5ndGg9IjciIHg9IjMyNi4xNzE2IiB5PSIxNjUuMzI4OCI+MTwvdGV4dD48dGV4dCBmaWxsPSIjMDAwMDAwIiBmb250LWZhbWlseT0ic2Fucy1zZXJpZiIgZm9udC1zaXplPSIxMyIgbGVuZ3RoQWRqdXN0PSJzcGFjaW5nIiB0ZXh0TGVuZ3RoPSI2IiB4PSIzMjUuOTUzOSIgeT0iMjMyLjY5OTYiPio8L3RleHQ+PC9nPjwhLS1saW5rIEJhZGdlIHRvIFVzZXJCYWRnZS0tPjxnIGlkPSJsaW5rX0JhZGdlX1VzZXJCYWRnZSI+PHBhdGggY29kZUxpbmU9IjEyNCIgZD0iTTE2NzQuNSwxNDUuMiBDMTY3NC41LDE4MC40MSAxNjc0LjUsMjI1Ljc2IDE2NzQuNSwyNTcuMzkgIiBmaWxsPSJub25lIiBpZD0iQmFkZ2UtVXNlckJhZGdlIiBzdHlsZT0ic3Ryb2tlOiMxODE4MTg7c3Ryb2tlLXdpZHRoOjEuMDsiLz48dGV4dCBmaWxsPSIjMDAwMDAwIiBmb250LWZhbWlseT0ic2Fucy1zZXJpZiIgZm9udC1zaXplPSIxMyIgbGVuZ3RoQWRqdXN0PSJzcGFjaW5nIiB0ZXh0TGVuZ3RoPSI3IiB4PSIxNjY3LjA1MTYiIHk9IjE2NS4zMjg4Ij4xPC90ZXh0Pjx0ZXh0IGZpbGw9IiMwMDAwMDAiIGZvbnQtZmFtaWx5PSJzYW5zLXNlcmlmIiBmb250LXNpemU9IjEzIiBsZW5ndGhBZGp1c3Q9InNwYWNpbmciIHRleHRMZW5ndGg9IjYiIHg9IjE2NjcuOTA5NCIgeT0iMjQ3Ljc5MjYiPio8L3RleHQ+PC9nPjwhLS1TUkM9W2ZMTjFSamltM0J0eEF1b1NrV3V6ejlmUnN4SFRYZ09leEVPMzY4ajlqRFlJOFNhRFdjN19GYmNNUkNib1owNng5RVB4OVh6OVlOSEhXZkpmTGc5OFZvVGYtanF5aGJWQmIzOWJ4N1VlUzlkY0liMXNDQzFwMVJHQ2EweVR1aW01LUc3bzYxMFBCcUZWZDF4T2pidzFxZDN4LXFhaEQwR3F3ZVhDcUtBM0R6LU13SUZOaGkwQ3J6SDRlbi0yeHNiZm8yekVJVjhkSU9lLVRxbFE0Z3BiTF83QWVQSDFBY2tjS0ExSzhQZ1ZRM2J3cVNkWk5oX0YyZkhuMld6SWVmSUxCaTFjQzAxLTRmLU5FY3A3MmNLWFFBcWVQbTVVMkRJSUd2MHZuR25iS3BoVHBsMHJ5dThCQlJlbEVUWEU4NEVYZXZDQ1FvdktlRmw0Z3hmNHBLc1NxQzd3VE12bkhYYTdLYTdqNGthaUZuQ0JIS3J1Q2lORUlkUVVMcExwWEt3dFZHcEFyX1FyQmd6Yk5zenV1SWVHZnVVMVo3S3JMSk1DZ2VqTHhVdFBtUGFfeEp4NlpEbTZncnFfZzlxSFRkV3FSWnl2UFBFVF9RTTk2UzU3ODBTdEpFUnZGLWVvX2pESnd5aXlXdlhFNVN1V285S1d4cnBIVlJpcGpCSUR1cUQtclhpekJkMzBxR044NDRQZHByaF9JdmxUbjNjV2lDNVRyWHVJMzNmTHZMWEFEWlhIN1U1ZGZhVUpVODVZdEpWS3BUNkh6N0pwSFhHdTNCaW52dk10c1RpX2RIT0d1V0I2Nk1wcWVrNTI3Y2RUTnB1N1hEQzZnWGFqTDBMMkpISFUyX3Y1MlJ1c2IwMlJhZG4xOTNpZUpiUkdjUndTbXdBTENkTk9VUkVoZzlmVUREOW1CZm9WWV9hbUJrdU53VHNULVZDLURZNXRrdVhzU2xJMk5MU0hGZmhsWUZWbFQ0SnNXbkk3N1V3S3ZNdnhSWllfbkZqdXBITlp6ZGpTSnhqWjF0aEc2NV9SUDVZUkN5THRJczZnbUJ5MF0tLT48L2c+PC9zdmc+;" parent="1" vertex="1">
            <mxGeometry x="-960" y="230" width="1986" height="547" as="geometry" />
          </mxCell>
        </UserObject>
      </root>
    </mxGraphModel>
  </diagram>
</mxfile>
